<?xml version="1.0" encoding="utf-8" standalone="no"?>
<!DOCTYPE svg PUBLIC "-//W3C//DTD SVG 1.1//EN"
  "http://www.w3.org/Graphics/SVG/1.1/DTD/svg11.dtd">
<svg xmlns:xlink="http://www.w3.org/1999/xlink" width="864pt" height="432pt" viewBox="0 0 864 432" xmlns="http://www.w3.org/2000/svg" version="1.1">
 <metadata>
  <rdf:RDF xmlns:dc="http://purl.org/dc/elements/1.1/" xmlns:cc="http://creativecommons.org/ns#" xmlns:rdf="http://www.w3.org/1999/02/22-rdf-syntax-ns#">
   <cc:Work>
    <dc:type rdf:resource="http://purl.org/dc/dcmitype/StillImage"/>
    <dc:date>2025-11-12T15:35:21.434481</dc:date>
    <dc:format>image/svg+xml</dc:format>
    <dc:creator>
     <cc:Agent>
      <dc:title>Matplotlib v3.10.6, https://matplotlib.org/</dc:title>
     </cc:Agent>
    </dc:creator>
   </cc:Work>
  </rdf:RDF>
 </metadata>
 <defs>
  <style type="text/css">*{stroke-linejoin: round; stroke-linecap: butt}</style>
 </defs>
 <g id="figure_1">
  <g id="patch_1">
   <path d="M 0 432 
L 864 432 
L 864 0 
L 0 0 
z
" style="fill: #ffffff"/>
  </g>
  <g id="axes_1">
   <g id="patch_2">
    <path d="M 108 384.48 
L 777.6 384.48 
L 777.6 51.84 
L 108 51.84 
z
" style="fill: #ffffff"/>
   </g>
   <g id="matplotlib.axis_1">
    <g id="xtick_1">
     <g id="line2d_1">
      <path d="M 138.436364 384.48 
L 138.436364 51.84 
" clip-path="url(#pbc1578cb84)" style="fill: none; stroke: #b0b0b0; stroke-width: 0.8; stroke-linecap: square"/>
     </g>
     <g id="line2d_2">
      <defs>
       <path id="m5734ca0151" d="M 0 0 
L 0 3.5 
" style="stroke: #000000; stroke-width: 0.8"/>
      </defs>
      <g>
       <use xlink:href="#m5734ca0151" x="138.436364" y="384.48" style="stroke: #000000; stroke-width: 0.8"/>
      </g>
     </g>
     <g id="text_1">
      <!-- 0 -->
      <g transform="translate(135.255114 399.078438) scale(0.1 -0.1)">
       <defs>
        <path id="DejaVuSans-30" d="M 2034 4250 
Q 1547 4250 1301 3770 
Q 1056 3291 1056 2328 
Q 1056 1369 1301 889 
Q 1547 409 2034 409 
Q 2525 409 2770 889 
Q 3016 1369 3016 2328 
Q 3016 3291 2770 3770 
Q 2525 4250 2034 4250 
z
M 2034 4750 
Q 2819 4750 3233 4129 
Q 3647 3509 3647 2328 
Q 3647 1150 3233 529 
Q 2819 -91 2034 -91 
Q 1250 -91 836 529 
Q 422 1150 422 2328 
Q 422 3509 836 4129 
Q 1250 4750 2034 4750 
z
" transform="scale(0.015625)"/>
       </defs>
       <use xlink:href="#DejaVuSans-30"/>
      </g>
     </g>
    </g>
    <g id="xtick_2">
     <g id="line2d_3">
      <path d="M 277.05125 384.48 
L 277.05125 51.84 
" clip-path="url(#pbc1578cb84)" style="fill: none; stroke: #b0b0b0; stroke-width: 0.8; stroke-linecap: square"/>
     </g>
     <g id="line2d_4">
      <g>
       <use xlink:href="#m5734ca0151" x="277.05125" y="384.48" style="stroke: #000000; stroke-width: 0.8"/>
      </g>
     </g>
     <g id="text_2">
      <!-- 2000 -->
      <g transform="translate(264.32625 399.078438) scale(0.1 -0.1)">
       <defs>
        <path id="DejaVuSans-32" d="M 1228 531 
L 3431 531 
L 3431 0 
L 469 0 
L 469 531 
Q 828 903 1448 1529 
Q 2069 2156 2228 2338 
Q 2531 2678 2651 2914 
Q 2772 3150 2772 3378 
Q 2772 3750 2511 3984 
Q 2250 4219 1831 4219 
Q 1534 4219 1204 4116 
Q 875 4013 500 3803 
L 500 4441 
Q 881 4594 1212 4672 
Q 1544 4750 1819 4750 
Q 2544 4750 2975 4387 
Q 3406 4025 3406 3419 
Q 3406 3131 3298 2873 
Q 3191 2616 2906 2266 
Q 2828 2175 2409 1742 
Q 1991 1309 1228 531 
z
" transform="scale(0.015625)"/>
       </defs>
       <use xlink:href="#DejaVuSans-32"/>
       <use xlink:href="#DejaVuSans-30" transform="translate(63.623047 0)"/>
       <use xlink:href="#DejaVuSans-30" transform="translate(127.246094 0)"/>
       <use xlink:href="#DejaVuSans-30" transform="translate(190.869141 0)"/>
      </g>
     </g>
    </g>
    <g id="xtick_3">
     <g id="line2d_5">
      <path d="M 415.666136 384.48 
L 415.666136 51.84 
" clip-path="url(#pbc1578cb84)" style="fill: none; stroke: #b0b0b0; stroke-width: 0.8; stroke-linecap: square"/>
     </g>
     <g id="line2d_6">
      <g>
       <use xlink:href="#m5734ca0151" x="415.666136" y="384.48" style="stroke: #000000; stroke-width: 0.8"/>
      </g>
     </g>
     <g id="text_3">
      <!-- 4000 -->
      <g transform="translate(402.941136 399.078438) scale(0.1 -0.1)">
       <defs>
        <path id="DejaVuSans-34" d="M 2419 4116 
L 825 1625 
L 2419 1625 
L 2419 4116 
z
M 2253 4666 
L 3047 4666 
L 3047 1625 
L 3713 1625 
L 3713 1100 
L 3047 1100 
L 3047 0 
L 2419 0 
L 2419 1100 
L 313 1100 
L 313 1709 
L 2253 4666 
z
" transform="scale(0.015625)"/>
       </defs>
       <use xlink:href="#DejaVuSans-34"/>
       <use xlink:href="#DejaVuSans-30" transform="translate(63.623047 0)"/>
       <use xlink:href="#DejaVuSans-30" transform="translate(127.246094 0)"/>
       <use xlink:href="#DejaVuSans-30" transform="translate(190.869141 0)"/>
      </g>
     </g>
    </g>
    <g id="xtick_4">
     <g id="line2d_7">
      <path d="M 554.281022 384.48 
L 554.281022 51.84 
" clip-path="url(#pbc1578cb84)" style="fill: none; stroke: #b0b0b0; stroke-width: 0.8; stroke-linecap: square"/>
     </g>
     <g id="line2d_8">
      <g>
       <use xlink:href="#m5734ca0151" x="554.281022" y="384.48" style="stroke: #000000; stroke-width: 0.8"/>
      </g>
     </g>
     <g id="text_4">
      <!-- 6000 -->
      <g transform="translate(541.556022 399.078438) scale(0.1 -0.1)">
       <defs>
        <path id="DejaVuSans-36" d="M 2113 2584 
Q 1688 2584 1439 2293 
Q 1191 2003 1191 1497 
Q 1191 994 1439 701 
Q 1688 409 2113 409 
Q 2538 409 2786 701 
Q 3034 994 3034 1497 
Q 3034 2003 2786 2293 
Q 2538 2584 2113 2584 
z
M 3366 4563 
L 3366 3988 
Q 3128 4100 2886 4159 
Q 2644 4219 2406 4219 
Q 1781 4219 1451 3797 
Q 1122 3375 1075 2522 
Q 1259 2794 1537 2939 
Q 1816 3084 2150 3084 
Q 2853 3084 3261 2657 
Q 3669 2231 3669 1497 
Q 3669 778 3244 343 
Q 2819 -91 2113 -91 
Q 1303 -91 875 529 
Q 447 1150 447 2328 
Q 447 3434 972 4092 
Q 1497 4750 2381 4750 
Q 2619 4750 2861 4703 
Q 3103 4656 3366 4563 
z
" transform="scale(0.015625)"/>
       </defs>
       <use xlink:href="#DejaVuSans-36"/>
       <use xlink:href="#DejaVuSans-30" transform="translate(63.623047 0)"/>
       <use xlink:href="#DejaVuSans-30" transform="translate(127.246094 0)"/>
       <use xlink:href="#DejaVuSans-30" transform="translate(190.869141 0)"/>
      </g>
     </g>
    </g>
    <g id="xtick_5">
     <g id="line2d_9">
      <path d="M 692.895908 384.48 
L 692.895908 51.84 
" clip-path="url(#pbc1578cb84)" style="fill: none; stroke: #b0b0b0; stroke-width: 0.8; stroke-linecap: square"/>
     </g>
     <g id="line2d_10">
      <g>
       <use xlink:href="#m5734ca0151" x="692.895908" y="384.48" style="stroke: #000000; stroke-width: 0.8"/>
      </g>
     </g>
     <g id="text_5">
      <!-- 8000 -->
      <g transform="translate(680.170908 399.078438) scale(0.1 -0.1)">
       <defs>
        <path id="DejaVuSans-38" d="M 2034 2216 
Q 1584 2216 1326 1975 
Q 1069 1734 1069 1313 
Q 1069 891 1326 650 
Q 1584 409 2034 409 
Q 2484 409 2743 651 
Q 3003 894 3003 1313 
Q 3003 1734 2745 1975 
Q 2488 2216 2034 2216 
z
M 1403 2484 
Q 997 2584 770 2862 
Q 544 3141 544 3541 
Q 544 4100 942 4425 
Q 1341 4750 2034 4750 
Q 2731 4750 3128 4425 
Q 3525 4100 3525 3541 
Q 3525 3141 3298 2862 
Q 3072 2584 2669 2484 
Q 3125 2378 3379 2068 
Q 3634 1759 3634 1313 
Q 3634 634 3220 271 
Q 2806 -91 2034 -91 
Q 1263 -91 848 271 
Q 434 634 434 1313 
Q 434 1759 690 2068 
Q 947 2378 1403 2484 
z
M 1172 3481 
Q 1172 3119 1398 2916 
Q 1625 2713 2034 2713 
Q 2441 2713 2670 2916 
Q 2900 3119 2900 3481 
Q 2900 3844 2670 4047 
Q 2441 4250 2034 4250 
Q 1625 4250 1398 4047 
Q 1172 3844 1172 3481 
z
" transform="scale(0.015625)"/>
       </defs>
       <use xlink:href="#DejaVuSans-38"/>
       <use xlink:href="#DejaVuSans-30" transform="translate(63.623047 0)"/>
       <use xlink:href="#DejaVuSans-30" transform="translate(127.246094 0)"/>
       <use xlink:href="#DejaVuSans-30" transform="translate(190.869141 0)"/>
      </g>
     </g>
    </g>
    <g id="text_6">
     <!-- Heures triées par ordre décroissant -->
     <g transform="translate(354.342969 413.156563) scale(0.1 -0.1)">
      <defs>
       <path id="DejaVuSans-48" d="M 628 4666 
L 1259 4666 
L 1259 2753 
L 3553 2753 
L 3553 4666 
L 4184 4666 
L 4184 0 
L 3553 0 
L 3553 2222 
L 1259 2222 
L 1259 0 
L 628 0 
L 628 4666 
z
" transform="scale(0.015625)"/>
       <path id="DejaVuSans-65" d="M 3597 1894 
L 3597 1613 
L 953 1613 
Q 991 1019 1311 708 
Q 1631 397 2203 397 
Q 2534 397 2845 478 
Q 3156 559 3463 722 
L 3463 178 
Q 3153 47 2828 -22 
Q 2503 -91 2169 -91 
Q 1331 -91 842 396 
Q 353 884 353 1716 
Q 353 2575 817 3079 
Q 1281 3584 2069 3584 
Q 2775 3584 3186 3129 
Q 3597 2675 3597 1894 
z
M 3022 2063 
Q 3016 2534 2758 2815 
Q 2500 3097 2075 3097 
Q 1594 3097 1305 2825 
Q 1016 2553 972 2059 
L 3022 2063 
z
" transform="scale(0.015625)"/>
       <path id="DejaVuSans-75" d="M 544 1381 
L 544 3500 
L 1119 3500 
L 1119 1403 
Q 1119 906 1312 657 
Q 1506 409 1894 409 
Q 2359 409 2629 706 
Q 2900 1003 2900 1516 
L 2900 3500 
L 3475 3500 
L 3475 0 
L 2900 0 
L 2900 538 
Q 2691 219 2414 64 
Q 2138 -91 1772 -91 
Q 1169 -91 856 284 
Q 544 659 544 1381 
z
M 1991 3584 
L 1991 3584 
z
" transform="scale(0.015625)"/>
       <path id="DejaVuSans-72" d="M 2631 2963 
Q 2534 3019 2420 3045 
Q 2306 3072 2169 3072 
Q 1681 3072 1420 2755 
Q 1159 2438 1159 1844 
L 1159 0 
L 581 0 
L 581 3500 
L 1159 3500 
L 1159 2956 
Q 1341 3275 1631 3429 
Q 1922 3584 2338 3584 
Q 2397 3584 2469 3576 
Q 2541 3569 2628 3553 
L 2631 2963 
z
" transform="scale(0.015625)"/>
       <path id="DejaVuSans-73" d="M 2834 3397 
L 2834 2853 
Q 2591 2978 2328 3040 
Q 2066 3103 1784 3103 
Q 1356 3103 1142 2972 
Q 928 2841 928 2578 
Q 928 2378 1081 2264 
Q 1234 2150 1697 2047 
L 1894 2003 
Q 2506 1872 2764 1633 
Q 3022 1394 3022 966 
Q 3022 478 2636 193 
Q 2250 -91 1575 -91 
Q 1294 -91 989 -36 
Q 684 19 347 128 
L 347 722 
Q 666 556 975 473 
Q 1284 391 1588 391 
Q 1994 391 2212 530 
Q 2431 669 2431 922 
Q 2431 1156 2273 1281 
Q 2116 1406 1581 1522 
L 1381 1569 
Q 847 1681 609 1914 
Q 372 2147 372 2553 
Q 372 3047 722 3315 
Q 1072 3584 1716 3584 
Q 2034 3584 2315 3537 
Q 2597 3491 2834 3397 
z
" transform="scale(0.015625)"/>
       <path id="DejaVuSans-20" transform="scale(0.015625)"/>
       <path id="DejaVuSans-74" d="M 1172 4494 
L 1172 3500 
L 2356 3500 
L 2356 3053 
L 1172 3053 
L 1172 1153 
Q 1172 725 1289 603 
Q 1406 481 1766 481 
L 2356 481 
L 2356 0 
L 1766 0 
Q 1100 0 847 248 
Q 594 497 594 1153 
L 594 3053 
L 172 3053 
L 172 3500 
L 594 3500 
L 594 4494 
L 1172 4494 
z
" transform="scale(0.015625)"/>
       <path id="DejaVuSans-69" d="M 603 3500 
L 1178 3500 
L 1178 0 
L 603 0 
L 603 3500 
z
M 603 4863 
L 1178 4863 
L 1178 4134 
L 603 4134 
L 603 4863 
z
" transform="scale(0.015625)"/>
       <path id="DejaVuSans-e9" d="M 3597 1894 
L 3597 1613 
L 953 1613 
Q 991 1019 1311 708 
Q 1631 397 2203 397 
Q 2534 397 2845 478 
Q 3156 559 3463 722 
L 3463 178 
Q 3153 47 2828 -22 
Q 2503 -91 2169 -91 
Q 1331 -91 842 396 
Q 353 884 353 1716 
Q 353 2575 817 3079 
Q 1281 3584 2069 3584 
Q 2775 3584 3186 3129 
Q 3597 2675 3597 1894 
z
M 3022 2063 
Q 3016 2534 2758 2815 
Q 2500 3097 2075 3097 
Q 1594 3097 1305 2825 
Q 1016 2553 972 2059 
L 3022 2063 
z
M 2466 5119 
L 3088 5119 
L 2070 3944 
L 1591 3944 
L 2466 5119 
z
" transform="scale(0.015625)"/>
       <path id="DejaVuSans-70" d="M 1159 525 
L 1159 -1331 
L 581 -1331 
L 581 3500 
L 1159 3500 
L 1159 2969 
Q 1341 3281 1617 3432 
Q 1894 3584 2278 3584 
Q 2916 3584 3314 3078 
Q 3713 2572 3713 1747 
Q 3713 922 3314 415 
Q 2916 -91 2278 -91 
Q 1894 -91 1617 61 
Q 1341 213 1159 525 
z
M 3116 1747 
Q 3116 2381 2855 2742 
Q 2594 3103 2138 3103 
Q 1681 3103 1420 2742 
Q 1159 2381 1159 1747 
Q 1159 1113 1420 752 
Q 1681 391 2138 391 
Q 2594 391 2855 752 
Q 3116 1113 3116 1747 
z
" transform="scale(0.015625)"/>
       <path id="DejaVuSans-61" d="M 2194 1759 
Q 1497 1759 1228 1600 
Q 959 1441 959 1056 
Q 959 750 1161 570 
Q 1363 391 1709 391 
Q 2188 391 2477 730 
Q 2766 1069 2766 1631 
L 2766 1759 
L 2194 1759 
z
M 3341 1997 
L 3341 0 
L 2766 0 
L 2766 531 
Q 2569 213 2275 61 
Q 1981 -91 1556 -91 
Q 1019 -91 701 211 
Q 384 513 384 1019 
Q 384 1609 779 1909 
Q 1175 2209 1959 2209 
L 2766 2209 
L 2766 2266 
Q 2766 2663 2505 2880 
Q 2244 3097 1772 3097 
Q 1472 3097 1187 3025 
Q 903 2953 641 2809 
L 641 3341 
Q 956 3463 1253 3523 
Q 1550 3584 1831 3584 
Q 2591 3584 2966 3190 
Q 3341 2797 3341 1997 
z
" transform="scale(0.015625)"/>
       <path id="DejaVuSans-6f" d="M 1959 3097 
Q 1497 3097 1228 2736 
Q 959 2375 959 1747 
Q 959 1119 1226 758 
Q 1494 397 1959 397 
Q 2419 397 2687 759 
Q 2956 1122 2956 1747 
Q 2956 2369 2687 2733 
Q 2419 3097 1959 3097 
z
M 1959 3584 
Q 2709 3584 3137 3096 
Q 3566 2609 3566 1747 
Q 3566 888 3137 398 
Q 2709 -91 1959 -91 
Q 1206 -91 779 398 
Q 353 888 353 1747 
Q 353 2609 779 3096 
Q 1206 3584 1959 3584 
z
" transform="scale(0.015625)"/>
       <path id="DejaVuSans-64" d="M 2906 2969 
L 2906 4863 
L 3481 4863 
L 3481 0 
L 2906 0 
L 2906 525 
Q 2725 213 2448 61 
Q 2172 -91 1784 -91 
Q 1150 -91 751 415 
Q 353 922 353 1747 
Q 353 2572 751 3078 
Q 1150 3584 1784 3584 
Q 2172 3584 2448 3432 
Q 2725 3281 2906 2969 
z
M 947 1747 
Q 947 1113 1208 752 
Q 1469 391 1925 391 
Q 2381 391 2643 752 
Q 2906 1113 2906 1747 
Q 2906 2381 2643 2742 
Q 2381 3103 1925 3103 
Q 1469 3103 1208 2742 
Q 947 2381 947 1747 
z
" transform="scale(0.015625)"/>
       <path id="DejaVuSans-63" d="M 3122 3366 
L 3122 2828 
Q 2878 2963 2633 3030 
Q 2388 3097 2138 3097 
Q 1578 3097 1268 2742 
Q 959 2388 959 1747 
Q 959 1106 1268 751 
Q 1578 397 2138 397 
Q 2388 397 2633 464 
Q 2878 531 3122 666 
L 3122 134 
Q 2881 22 2623 -34 
Q 2366 -91 2075 -91 
Q 1284 -91 818 406 
Q 353 903 353 1747 
Q 353 2603 823 3093 
Q 1294 3584 2113 3584 
Q 2378 3584 2631 3529 
Q 2884 3475 3122 3366 
z
" transform="scale(0.015625)"/>
       <path id="DejaVuSans-6e" d="M 3513 2113 
L 3513 0 
L 2938 0 
L 2938 2094 
Q 2938 2591 2744 2837 
Q 2550 3084 2163 3084 
Q 1697 3084 1428 2787 
Q 1159 2491 1159 1978 
L 1159 0 
L 581 0 
L 581 3500 
L 1159 3500 
L 1159 2956 
Q 1366 3272 1645 3428 
Q 1925 3584 2291 3584 
Q 2894 3584 3203 3211 
Q 3513 2838 3513 2113 
z
" transform="scale(0.015625)"/>
      </defs>
      <use xlink:href="#DejaVuSans-48"/>
      <use xlink:href="#DejaVuSans-65" transform="translate(75.195312 0)"/>
      <use xlink:href="#DejaVuSans-75" transform="translate(136.71875 0)"/>
      <use xlink:href="#DejaVuSans-72" transform="translate(200.097656 0)"/>
      <use xlink:href="#DejaVuSans-65" transform="translate(238.960938 0)"/>
      <use xlink:href="#DejaVuSans-73" transform="translate(300.484375 0)"/>
      <use xlink:href="#DejaVuSans-20" transform="translate(352.583984 0)"/>
      <use xlink:href="#DejaVuSans-74" transform="translate(384.371094 0)"/>
      <use xlink:href="#DejaVuSans-72" transform="translate(423.580078 0)"/>
      <use xlink:href="#DejaVuSans-69" transform="translate(464.693359 0)"/>
      <use xlink:href="#DejaVuSans-e9" transform="translate(492.476562 0)"/>
      <use xlink:href="#DejaVuSans-65" transform="translate(554 0)"/>
      <use xlink:href="#DejaVuSans-73" transform="translate(615.523438 0)"/>
      <use xlink:href="#DejaVuSans-20" transform="translate(667.623047 0)"/>
      <use xlink:href="#DejaVuSans-70" transform="translate(699.410156 0)"/>
      <use xlink:href="#DejaVuSans-61" transform="translate(762.886719 0)"/>
      <use xlink:href="#DejaVuSans-72" transform="translate(824.166016 0)"/>
      <use xlink:href="#DejaVuSans-20" transform="translate(865.279297 0)"/>
      <use xlink:href="#DejaVuSans-6f" transform="translate(897.066406 0)"/>
      <use xlink:href="#DejaVuSans-72" transform="translate(958.248047 0)"/>
      <use xlink:href="#DejaVuSans-64" transform="translate(997.611328 0)"/>
      <use xlink:href="#DejaVuSans-72" transform="translate(1061.087891 0)"/>
      <use xlink:href="#DejaVuSans-65" transform="translate(1099.951172 0)"/>
      <use xlink:href="#DejaVuSans-20" transform="translate(1161.474609 0)"/>
      <use xlink:href="#DejaVuSans-64" transform="translate(1193.261719 0)"/>
      <use xlink:href="#DejaVuSans-e9" transform="translate(1256.738281 0)"/>
      <use xlink:href="#DejaVuSans-63" transform="translate(1318.261719 0)"/>
      <use xlink:href="#DejaVuSans-72" transform="translate(1373.242188 0)"/>
      <use xlink:href="#DejaVuSans-6f" transform="translate(1412.105469 0)"/>
      <use xlink:href="#DejaVuSans-69" transform="translate(1473.287109 0)"/>
      <use xlink:href="#DejaVuSans-73" transform="translate(1501.070312 0)"/>
      <use xlink:href="#DejaVuSans-73" transform="translate(1553.169922 0)"/>
      <use xlink:href="#DejaVuSans-61" transform="translate(1605.269531 0)"/>
      <use xlink:href="#DejaVuSans-6e" transform="translate(1666.548828 0)"/>
      <use xlink:href="#DejaVuSans-74" transform="translate(1729.927734 0)"/>
     </g>
    </g>
   </g>
   <g id="matplotlib.axis_2">
    <g id="ytick_1">
     <g id="line2d_11">
      <path d="M 108 334.687331 
L 777.6 334.687331 
" clip-path="url(#pbc1578cb84)" style="fill: none; stroke: #b0b0b0; stroke-width: 0.8; stroke-linecap: square"/>
     </g>
     <g id="line2d_12">
      <defs>
       <path id="m036e51c4ef" d="M 0 0 
L -3.5 0 
" style="stroke: #000000; stroke-width: 0.8"/>
      </defs>
      <g>
       <use xlink:href="#m036e51c4ef" x="108" y="334.687331" style="stroke: #000000; stroke-width: 0.8"/>
      </g>
     </g>
     <g id="text_7">
      <!-- 20 -->
      <g transform="translate(88.275 338.48655) scale(0.1 -0.1)">
       <use xlink:href="#DejaVuSans-32"/>
       <use xlink:href="#DejaVuSans-30" transform="translate(63.623047 0)"/>
      </g>
     </g>
    </g>
    <g id="ytick_2">
     <g id="line2d_13">
      <path d="M 108 284.195605 
L 777.6 284.195605 
" clip-path="url(#pbc1578cb84)" style="fill: none; stroke: #b0b0b0; stroke-width: 0.8; stroke-linecap: square"/>
     </g>
     <g id="line2d_14">
      <g>
       <use xlink:href="#m036e51c4ef" x="108" y="284.195605" style="stroke: #000000; stroke-width: 0.8"/>
      </g>
     </g>
     <g id="text_8">
      <!-- 30 -->
      <g transform="translate(88.275 287.994823) scale(0.1 -0.1)">
       <defs>
        <path id="DejaVuSans-33" d="M 2597 2516 
Q 3050 2419 3304 2112 
Q 3559 1806 3559 1356 
Q 3559 666 3084 287 
Q 2609 -91 1734 -91 
Q 1441 -91 1130 -33 
Q 819 25 488 141 
L 488 750 
Q 750 597 1062 519 
Q 1375 441 1716 441 
Q 2309 441 2620 675 
Q 2931 909 2931 1356 
Q 2931 1769 2642 2001 
Q 2353 2234 1838 2234 
L 1294 2234 
L 1294 2753 
L 1863 2753 
Q 2328 2753 2575 2939 
Q 2822 3125 2822 3475 
Q 2822 3834 2567 4026 
Q 2313 4219 1838 4219 
Q 1578 4219 1281 4162 
Q 984 4106 628 3988 
L 628 4550 
Q 988 4650 1302 4700 
Q 1616 4750 1894 4750 
Q 2613 4750 3031 4423 
Q 3450 4097 3450 3541 
Q 3450 3153 3228 2886 
Q 3006 2619 2597 2516 
z
" transform="scale(0.015625)"/>
       </defs>
       <use xlink:href="#DejaVuSans-33"/>
       <use xlink:href="#DejaVuSans-30" transform="translate(63.623047 0)"/>
      </g>
     </g>
    </g>
    <g id="ytick_3">
     <g id="line2d_15">
      <path d="M 108 233.703878 
L 777.6 233.703878 
" clip-path="url(#pbc1578cb84)" style="fill: none; stroke: #b0b0b0; stroke-width: 0.8; stroke-linecap: square"/>
     </g>
     <g id="line2d_16">
      <g>
       <use xlink:href="#m036e51c4ef" x="108" y="233.703878" style="stroke: #000000; stroke-width: 0.8"/>
      </g>
     </g>
     <g id="text_9">
      <!-- 40 -->
      <g transform="translate(88.275 237.503097) scale(0.1 -0.1)">
       <use xlink:href="#DejaVuSans-34"/>
       <use xlink:href="#DejaVuSans-30" transform="translate(63.623047 0)"/>
      </g>
     </g>
    </g>
    <g id="ytick_4">
     <g id="line2d_17">
      <path d="M 108 183.212151 
L 777.6 183.212151 
" clip-path="url(#pbc1578cb84)" style="fill: none; stroke: #b0b0b0; stroke-width: 0.8; stroke-linecap: square"/>
     </g>
     <g id="line2d_18">
      <g>
       <use xlink:href="#m036e51c4ef" x="108" y="183.212151" style="stroke: #000000; stroke-width: 0.8"/>
      </g>
     </g>
     <g id="text_10">
      <!-- 50 -->
      <g transform="translate(88.275 187.01137) scale(0.1 -0.1)">
       <defs>
        <path id="DejaVuSans-35" d="M 691 4666 
L 3169 4666 
L 3169 4134 
L 1269 4134 
L 1269 2991 
Q 1406 3038 1543 3061 
Q 1681 3084 1819 3084 
Q 2600 3084 3056 2656 
Q 3513 2228 3513 1497 
Q 3513 744 3044 326 
Q 2575 -91 1722 -91 
Q 1428 -91 1123 -41 
Q 819 9 494 109 
L 494 744 
Q 775 591 1075 516 
Q 1375 441 1709 441 
Q 2250 441 2565 725 
Q 2881 1009 2881 1497 
Q 2881 1984 2565 2268 
Q 2250 2553 1709 2553 
Q 1456 2553 1204 2497 
Q 953 2441 691 2322 
L 691 4666 
z
" transform="scale(0.015625)"/>
       </defs>
       <use xlink:href="#DejaVuSans-35"/>
       <use xlink:href="#DejaVuSans-30" transform="translate(63.623047 0)"/>
      </g>
     </g>
    </g>
    <g id="ytick_5">
     <g id="line2d_19">
      <path d="M 108 132.720425 
L 777.6 132.720425 
" clip-path="url(#pbc1578cb84)" style="fill: none; stroke: #b0b0b0; stroke-width: 0.8; stroke-linecap: square"/>
     </g>
     <g id="line2d_20">
      <g>
       <use xlink:href="#m036e51c4ef" x="108" y="132.720425" style="stroke: #000000; stroke-width: 0.8"/>
      </g>
     </g>
     <g id="text_11">
      <!-- 60 -->
      <g transform="translate(88.275 136.519644) scale(0.1 -0.1)">
       <use xlink:href="#DejaVuSans-36"/>
       <use xlink:href="#DejaVuSans-30" transform="translate(63.623047 0)"/>
      </g>
     </g>
    </g>
    <g id="ytick_6">
     <g id="line2d_21">
      <path d="M 108 82.228698 
L 777.6 82.228698 
" clip-path="url(#pbc1578cb84)" style="fill: none; stroke: #b0b0b0; stroke-width: 0.8; stroke-linecap: square"/>
     </g>
     <g id="line2d_22">
      <g>
       <use xlink:href="#m036e51c4ef" x="108" y="82.228698" style="stroke: #000000; stroke-width: 0.8"/>
      </g>
     </g>
     <g id="text_12">
      <!-- 70 -->
      <g transform="translate(88.275 86.027917) scale(0.1 -0.1)">
       <defs>
        <path id="DejaVuSans-37" d="M 525 4666 
L 3525 4666 
L 3525 4397 
L 1831 0 
L 1172 0 
L 2766 4134 
L 525 4134 
L 525 4666 
z
" transform="scale(0.015625)"/>
       </defs>
       <use xlink:href="#DejaVuSans-37"/>
       <use xlink:href="#DejaVuSans-30" transform="translate(63.623047 0)"/>
      </g>
     </g>
    </g>
    <g id="text_13">
     <!-- Consommation nette (GW) -->
     <g transform="translate(82.195312 285.065469) rotate(-90) scale(0.1 -0.1)">
      <defs>
       <path id="DejaVuSans-43" d="M 4122 4306 
L 4122 3641 
Q 3803 3938 3442 4084 
Q 3081 4231 2675 4231 
Q 1875 4231 1450 3742 
Q 1025 3253 1025 2328 
Q 1025 1406 1450 917 
Q 1875 428 2675 428 
Q 3081 428 3442 575 
Q 3803 722 4122 1019 
L 4122 359 
Q 3791 134 3420 21 
Q 3050 -91 2638 -91 
Q 1578 -91 968 557 
Q 359 1206 359 2328 
Q 359 3453 968 4101 
Q 1578 4750 2638 4750 
Q 3056 4750 3426 4639 
Q 3797 4528 4122 4306 
z
" transform="scale(0.015625)"/>
       <path id="DejaVuSans-6d" d="M 3328 2828 
Q 3544 3216 3844 3400 
Q 4144 3584 4550 3584 
Q 5097 3584 5394 3201 
Q 5691 2819 5691 2113 
L 5691 0 
L 5113 0 
L 5113 2094 
Q 5113 2597 4934 2840 
Q 4756 3084 4391 3084 
Q 3944 3084 3684 2787 
Q 3425 2491 3425 1978 
L 3425 0 
L 2847 0 
L 2847 2094 
Q 2847 2600 2669 2842 
Q 2491 3084 2119 3084 
Q 1678 3084 1418 2786 
Q 1159 2488 1159 1978 
L 1159 0 
L 581 0 
L 581 3500 
L 1159 3500 
L 1159 2956 
Q 1356 3278 1631 3431 
Q 1906 3584 2284 3584 
Q 2666 3584 2933 3390 
Q 3200 3197 3328 2828 
z
" transform="scale(0.015625)"/>
       <path id="DejaVuSans-28" d="M 1984 4856 
Q 1566 4138 1362 3434 
Q 1159 2731 1159 2009 
Q 1159 1288 1364 580 
Q 1569 -128 1984 -844 
L 1484 -844 
Q 1016 -109 783 600 
Q 550 1309 550 2009 
Q 550 2706 781 3412 
Q 1013 4119 1484 4856 
L 1984 4856 
z
" transform="scale(0.015625)"/>
       <path id="DejaVuSans-47" d="M 3809 666 
L 3809 1919 
L 2778 1919 
L 2778 2438 
L 4434 2438 
L 4434 434 
Q 4069 175 3628 42 
Q 3188 -91 2688 -91 
Q 1594 -91 976 548 
Q 359 1188 359 2328 
Q 359 3472 976 4111 
Q 1594 4750 2688 4750 
Q 3144 4750 3555 4637 
Q 3966 4525 4313 4306 
L 4313 3634 
Q 3963 3931 3569 4081 
Q 3175 4231 2741 4231 
Q 1884 4231 1454 3753 
Q 1025 3275 1025 2328 
Q 1025 1384 1454 906 
Q 1884 428 2741 428 
Q 3075 428 3337 486 
Q 3600 544 3809 666 
z
" transform="scale(0.015625)"/>
       <path id="DejaVuSans-57" d="M 213 4666 
L 850 4666 
L 1831 722 
L 2809 4666 
L 3519 4666 
L 4500 722 
L 5478 4666 
L 6119 4666 
L 4947 0 
L 4153 0 
L 3169 4050 
L 2175 0 
L 1381 0 
L 213 4666 
z
" transform="scale(0.015625)"/>
       <path id="DejaVuSans-29" d="M 513 4856 
L 1013 4856 
Q 1481 4119 1714 3412 
Q 1947 2706 1947 2009 
Q 1947 1309 1714 600 
Q 1481 -109 1013 -844 
L 513 -844 
Q 928 -128 1133 580 
Q 1338 1288 1338 2009 
Q 1338 2731 1133 3434 
Q 928 4138 513 4856 
z
" transform="scale(0.015625)"/>
      </defs>
      <use xlink:href="#DejaVuSans-43"/>
      <use xlink:href="#DejaVuSans-6f" transform="translate(69.824219 0)"/>
      <use xlink:href="#DejaVuSans-6e" transform="translate(131.005859 0)"/>
      <use xlink:href="#DejaVuSans-73" transform="translate(194.384766 0)"/>
      <use xlink:href="#DejaVuSans-6f" transform="translate(246.484375 0)"/>
      <use xlink:href="#DejaVuSans-6d" transform="translate(307.666016 0)"/>
      <use xlink:href="#DejaVuSans-6d" transform="translate(405.078125 0)"/>
      <use xlink:href="#DejaVuSans-61" transform="translate(502.490234 0)"/>
      <use xlink:href="#DejaVuSans-74" transform="translate(563.769531 0)"/>
      <use xlink:href="#DejaVuSans-69" transform="translate(602.978516 0)"/>
      <use xlink:href="#DejaVuSans-6f" transform="translate(630.761719 0)"/>
      <use xlink:href="#DejaVuSans-6e" transform="translate(691.943359 0)"/>
      <use xlink:href="#DejaVuSans-20" transform="translate(755.322266 0)"/>
      <use xlink:href="#DejaVuSans-6e" transform="translate(787.109375 0)"/>
      <use xlink:href="#DejaVuSans-65" transform="translate(850.488281 0)"/>
      <use xlink:href="#DejaVuSans-74" transform="translate(912.011719 0)"/>
      <use xlink:href="#DejaVuSans-74" transform="translate(951.220703 0)"/>
      <use xlink:href="#DejaVuSans-65" transform="translate(990.429688 0)"/>
      <use xlink:href="#DejaVuSans-20" transform="translate(1051.953125 0)"/>
      <use xlink:href="#DejaVuSans-28" transform="translate(1083.740234 0)"/>
      <use xlink:href="#DejaVuSans-47" transform="translate(1122.753906 0)"/>
      <use xlink:href="#DejaVuSans-57" transform="translate(1200.244141 0)"/>
      <use xlink:href="#DejaVuSans-29" transform="translate(1299.121094 0)"/>
     </g>
    </g>
   </g>
   <g id="line2d_23">
    <path d="M 138.436364 66.96 
L 138.713593 70.247011 
L 138.852208 70.842814 
L 139.33736 80.75434 
L 139.545283 84.10699 
L 139.683898 84.374597 
L 139.753205 84.425088 
L 139.961127 86.111512 
L 140.376972 90.45885 
L 141.000739 95.40199 
L 141.070046 95.477727 
L 141.208661 97.04802 
L 141.416584 97.340872 
L 141.763121 97.911428 
L 141.832428 97.987166 
L 141.971043 98.784935 
L 142.040351 98.951558 
L 142.31758 102.804077 
L 142.59481 103.192863 
L 142.941347 105.076204 
L 143.079962 105.278171 
L 143.218577 105.560925 
L 143.287885 105.586171 
L 143.495807 106.126432 
L 143.703729 107.29784 
L 144.119574 110.433377 
L 144.327496 112.286423 
L 144.535419 112.569177 
L 144.674034 112.97311 
L 144.881956 113.124586 
L 145.020571 113.775929 
L 145.436415 114.179863 
L 145.505723 114.311141 
L 145.782953 115.4775 
L 145.990875 115.735008 
L 146.198797 116.098548 
L 146.40672 116.285368 
L 147.446331 120.142936 
L 147.584946 120.319657 
L 147.792868 121.435524 
L 148.000791 122.263588 
L 148.208713 124.116635 
L 148.278021 124.308503 
L 148.416635 125.298141 
L 148.901788 126.545287 
L 149.38694 127.923711 
L 149.941399 129.473807 
L 150.218629 129.928232 
L 150.495859 130.690657 
L 150.703781 130.761346 
L 150.911703 130.968362 
L 150.981011 130.993608 
L 151.53547 133.280883 
L 152.08993 134.285668 
L 152.228545 134.775438 
L 152.783004 135.108683 
L 153.129542 135.840813 
L 153.198849 135.931699 
L 153.337464 136.386124 
L 153.545386 136.53255 
L 154.030538 137.4515 
L 154.099846 137.456549 
L 154.238461 138.3654 
L 154.51569 138.537072 
L 154.79292 139.284349 
L 154.862228 139.309595 
L 155.485995 140.526446 
L 155.62461 140.657724 
L 155.693917 140.728413 
L 155.901839 141.187887 
L 156.040454 141.319166 
L 156.179069 141.889722 
L 156.664221 142.142181 
L 156.872144 142.833918 
L 157.426603 143.394376 
L 157.565218 143.803359 
L 157.911755 144.338571 
L 158.119677 144.868734 
L 158.396907 144.994964 
L 158.674137 145.353455 
L 158.951367 145.555422 
L 159.436519 146.343093 
L 159.644441 146.433978 
L 159.713749 146.524863 
L 159.852364 147.034829 
L 160.060286 147.135813 
L 160.198901 147.352927 
L 160.337516 147.539747 
L 160.476131 147.817451 
L 160.614745 147.958828 
L 161.03059 148.509188 
L 161.238512 148.928269 
L 162.486046 150.498562 
L 162.832584 151.165053 
L 162.971198 151.210495 
L 163.179121 151.624527 
L 163.317736 151.66997 
L 163.594965 152.28092 
L 163.73358 152.573772 
L 164.01081 152.780788 
L 164.56527 153.669442 
L 164.981114 153.997638 
L 165.119729 154.184458 
L 165.466266 154.315736 
L 165.674189 154.815604 
L 165.812804 154.881244 
L 166.297956 155.850685 
L 166.367263 155.865832 
L 166.505878 156.441438 
L 167.753412 157.764321 
L 167.892027 157.8956 
L 167.961334 157.971337 
L 168.238564 158.612582 
L 168.585101 158.915533 
L 168.793024 159.268975 
L 169.139561 159.849629 
L 169.278176 159.935465 
L 169.69402 160.627202 
L 169.832635 160.738284 
L 169.97125 160.950349 
L 170.109865 161.00589 
L 170.317787 161.258349 
L 170.456402 162.187396 
L 170.52571 162.22779 
L 170.664325 162.707461 
L 170.80294 162.788248 
L 171.010862 162.934674 
L 171.357399 163.045756 
L 171.842551 163.661755 
L 171.911859 163.666804 
L 172.258396 164.434278 
L 172.397011 164.560508 
L 172.604933 164.969491 
L 173.159393 165.161359 
L 173.436622 165.918735 
L 173.644545 166.044964 
L 173.991082 166.337816 
L 174.199004 166.423652 
L 174.614849 167.039651 
L 174.684156 167.054799 
L 174.892079 167.256766 
L 175.377231 168.14542 
L 175.585153 168.529157 
L 175.93169 168.917944 
L 176.278228 169.165353 
L 176.832687 169.392566 
L 176.971302 169.806598 
L 177.179224 169.937876 
L 177.387147 170.054007 
L 177.595069 170.46804 
L 177.802991 170.543777 
L 178.010914 171.089088 
L 178.149529 171.306202 
L 178.426758 171.462727 
L 179.050525 171.952496 
L 179.327755 172.169611 
L 179.535677 172.684626 
L 179.882215 172.8462 
L 180.991134 174.224624 
L 181.406978 174.411443 
L 181.684208 174.573017 
L 181.961438 174.759836 
L 182.238668 175.017344 
L 182.793127 175.401081 
L 183.694124 176.067572 
L 183.832739 176.370522 
L 184.040661 176.521998 
L 184.317891 176.829997 
L 184.456506 177.077407 
L 185.218888 177.663111 
L 185.842655 177.976159 
L 186.050577 178.410388 
L 186.258499 178.652748 
L 186.466422 178.89006 
L 186.674344 178.975896 
L 186.951574 179.288944 
L 187.436726 179.612091 
L 187.506033 179.632288 
L 187.713956 179.955435 
L 187.852571 180.101861 
L 188.060493 180.243238 
L 188.199108 180.29373 
L 188.40703 180.581532 
L 189.030797 180.919827 
L 189.446642 181.217728 
L 189.654564 181.687301 
L 189.793179 181.788285 
L 192.149632 183.363627 
L 192.288247 183.565593 
L 192.981321 183.727167 
L 193.119936 183.848347 
L 193.258551 184.045265 
L 193.813011 184.312871 
L 194.020933 184.691559 
L 195.822927 185.822574 
L 196.238771 186.51936 
L 196.446694 186.82231 
L 197.555613 187.514047 
L 198.040765 187.781653 
L 198.248687 187.872538 
L 198.387302 187.943226 
L 198.664532 188.311816 
L 199.080376 188.503684 
L 199.218991 188.877323 
L 199.634836 189.175224 
L 199.981373 189.301454 
L 200.674448 189.654896 
L 200.88237 189.836666 
L 201.090292 189.942699 
L 201.436829 190.265846 
L 201.575444 190.36178 
L 202.060596 190.907091 
L 202.476441 191.371614 
L 202.892286 191.492795 
L 203.169515 191.831089 
L 203.723975 191.972466 
L 204.001205 192.144138 
L 204.13982 192.229974 
L 204.417049 192.3764 
L 204.832894 192.502629 
L 205.318046 192.785383 
L 205.456661 192.92171 
L 205.803198 193.058038 
L 206.080428 193.214562 
L 206.219043 193.260005 
L 206.426965 193.451874 
L 206.56558 193.618496 
L 206.773503 193.749775 
L 206.912117 193.764922 
L 207.12004 194.184004 
L 207.882422 194.592987 
L 208.298266 194.956527 
L 208.644803 195.148396 
L 209.060648 195.330166 
L 209.26857 195.4261 
L 209.892337 195.693706 
L 210.10026 195.799739 
L 210.37749 196.117837 
L 210.793334 196.410689 
L 211.209179 196.794426 
L 212.110176 197.157966 
L 212.387405 197.324589 
L 212.664635 197.44072 
L 213.011172 197.551802 
L 213.288402 197.768916 
L 213.842862 198.011276 
L 215.021088 198.531341 
L 215.367625 198.708062 
L 215.575548 198.814095 
L 215.991392 198.955472 
L 216.33793 199.308914 
L 218.832998 200.258158 
L 219.04092 200.424781 
L 219.456765 200.641895 
L 219.872609 200.874157 
L 220.357761 201.278091 
L 220.565684 201.414419 
L 221.74391 201.904189 
L 222.229062 202.116254 
L 223.060752 202.545434 
L 223.753826 202.833236 
L 223.961748 203.045302 
L 224.377593 203.131138 
L 224.72413 203.222023 
L 228.53604 204.76707 
L 229.090499 204.994282 
L 230.268726 205.408314 
L 230.823185 205.55474 
L 231.031108 205.640576 
L 231.23903 205.701166 
L 231.793489 206.110149 
L 232.070719 206.190936 
L 232.417256 206.549427 
L 232.625179 206.645362 
L 232.833101 206.741296 
L 233.318253 206.89782 
L 233.734098 207.049296 
L 234.21925 207.286607 
L 234.427172 207.397688 
L 235.050939 207.604705 
L 235.397477 207.730934 
L 236.506396 208.150015 
L 236.783625 208.316638 
L 237.75393 208.629687 
L 238.031159 208.73067 
L 238.516311 208.877096 
L 239.555923 209.361817 
L 240.041075 209.553685 
L 240.248998 209.614275 
L 240.526227 209.70516 
L 240.803457 209.7708 
L 241.011379 209.861685 
L 241.912376 210.154537 
L 242.189606 210.184832 
L 242.466836 210.472635 
L 245.239133 211.765223 
L 245.8629 212.007583 
L 246.486667 212.335779 
L 247.249049 212.593287 
L 247.526279 212.704369 
L 248.011431 212.800303 
L 248.080739 212.8205 
L 248.219354 213.072959 
L 249.466887 213.350663 
L 251.961955 214.52712 
L 252.308493 214.638202 
L 253.209489 215.047185 
L 254.803561 215.673282 
L 255.08079 215.961085 
L 255.981787 216.137806 
L 256.259017 216.264036 
L 256.397632 216.35997 
L 256.882784 216.738658 
L 257.160014 216.864887 
L 257.437243 216.981018 
L 257.645166 217.132493 
L 258.130318 217.228428 
L 258.33824 217.309214 
L 258.61547 217.369804 
L 258.823392 217.511181 
L 259.377852 217.652558 
L 259.585774 217.788886 
L 261.110538 218.349344 
L 261.387768 218.389737 
L 261.664997 218.621999 
L 262.080842 218.753278 
L 262.288764 218.884556 
L 263.189761 219.025933 
L 263.674913 219.222851 
L 264.021451 219.293539 
L 264.57591 219.566195 
L 265.199677 219.773211 
L 265.546214 219.884292 
L 266.031366 220.116554 
L 266.377904 220.273079 
L 266.863056 220.4498 
L 267.209593 220.535636 
L 269.080894 221.18193 
L 269.912583 221.510126 
L 270.53635 221.621208 
L 271.09081 221.823175 
L 271.437347 221.934257 
L 271.991806 222.085732 
L 272.962111 222.368485 
L 273.170033 222.469469 
L 273.7938 222.625993 
L 274.209645 222.807763 
L 274.833412 222.944091 
L 275.041334 223.01478 
L 275.318564 223.085468 
L 275.595794 223.25714 
L 276.011638 223.484353 
L 276.77402 223.615631 
L 277.05125 223.701467 
L 277.32848 223.792352 
L 277.536402 223.979171 
L 278.021554 224.090253 
L 279.407703 224.701203 
L 279.615625 224.787039 
L 280.03147 225.019301 
L 280.447315 225.15058 
L 280.863159 225.39294 
L 283.704764 226.321988 
L 284.675069 226.55425 
L 284.952298 226.710774 
L 285.506758 226.806708 
L 285.71468 226.927888 
L 286.477062 227.145003 
L 286.754292 227.306576 
L 287.447366 227.463101 
L 287.932518 227.639822 
L 288.348363 227.755953 
L 289.180052 228.058903 
L 289.942434 228.230575 
L 291.467198 228.548673 
L 292.576117 228.922312 
L 293.615729 229.154573 
L 293.892959 229.260606 
L 294.378111 229.447425 
L 294.863263 229.528212 
L 295.140492 229.608999 
L 296.457334 229.856408 
L 296.665256 229.952343 
L 297.081101 230.083621 
L 299.506861 230.866243 
L 299.853399 231.093456 
L 300.546473 231.300472 
L 300.89301 231.4368 
L 301.308855 231.547881 
L 302.071237 231.729652 
L 302.279159 231.845783 
L 302.972234 232.032602 
L 303.249463 232.133585 
L 303.734615 232.239618 
L 305.467302 232.598109 
L 305.883146 232.759683 
L 309.902978 234.042173 
L 310.249515 234.143156 
L 311.497049 234.420861 
L 311.704971 234.511746 
L 317.110952 235.986104 
L 317.526797 236.082038 
L 317.734719 236.183022 
L 319.190175 236.496071 
L 319.813942 236.617251 
L 320.160479 236.713185 
L 320.507017 236.793972 
L 320.645632 236.799021 
L 320.853554 236.975742 
L 321.408013 237.101971 
L 321.823858 237.197906 
L 322.724855 237.308987 
L 323.002085 237.430167 
L 324.318926 237.723019 
L 324.665463 237.864396 
L 325.705075 238.197642 
L 327.437761 238.672264 
L 327.853606 238.768198 
L 328.82391 239.081247 
L 329.031832 239.18728 
L 329.794214 239.298361 
L 330.071444 239.449837 
L 330.695211 239.606361 
L 330.903133 239.752787 
L 332.012052 239.939606 
L 332.566512 240.070885 
L 334.368505 240.565704 
L 334.853657 240.666687 
L 336.724958 240.964588 
L 337.071496 241.095867 
L 337.348725 241.206949 
L 337.903185 241.338227 
L 341.853709 242.302619 
L 342.338861 242.484389 
L 343.44778 242.751995 
L 344.00224 242.873176 
L 344.972544 243.105438 
L 345.249774 243.181175 
L 345.734926 243.236716 
L 346.081463 243.39324 
L 347.190382 243.665896 
L 348.437916 243.918354 
L 349.200298 243.989043 
L 349.477528 244.06983 
L 350.031987 244.206157 
L 350.378525 244.362682 
L 351.210214 244.569698 
L 351.626059 244.660583 
L 352.180518 244.832255 
L 352.66567 244.948386 
L 352.873593 245.074615 
L 353.289437 245.140254 
L 353.49736 245.246287 
L 354.190434 245.352319 
L 354.675586 245.498745 
L 356.546887 245.882483 
L 358.764725 246.432842 
L 359.388492 246.538875 
L 360.497411 246.761039 
L 361.121178 246.902415 
L 361.467716 247.018546 
L 363.824169 247.594152 
L 364.517243 247.79107 
L 364.794473 247.85166 
L 367.428156 248.699921 
L 368.051923 248.856445 
L 368.39846 248.952379 
L 369.160842 249.088707 
L 369.784609 249.341166 
L 370.408376 249.533034 
L 370.685605 249.628969 
L 371.586602 249.80569 
L 371.863832 249.886476 
L 372.903444 250.04805 
L 373.180673 250.10864 
L 374.220285 250.451984 
L 375.051974 250.633754 
L 375.259897 250.709492 
L 378.794576 251.370933 
L 379.487651 251.562802 
L 379.834188 251.648638 
L 380.250033 251.779916 
L 380.8738 251.896047 
L 381.497567 252.072768 
L 381.774796 252.254538 
L 382.259948 252.400964 
L 385.863935 253.082603 
L 386.00255 253.09775 
L 386.210473 253.249225 
L 387.250084 253.496635 
L 387.735236 253.607717 
L 389.53723 253.850077 
L 393.557062 254.546863 
L 395.012518 254.864961 
L 395.7749 254.976042 
L 397.854123 255.324435 
L 399.03235 255.521353 
L 399.378887 255.566796 
L 403.745256 256.303975 
L 403.953178 256.420106 
L 405.963094 256.748302 
L 406.656168 256.81899 
L 407.002706 256.930072 
L 407.557165 257.116892 
L 407.765088 257.182531 
L 411.299767 257.808628 
L 419.478045 259.490003 
L 420.864194 259.686921 
L 421.834498 259.924232 
L 422.250343 260.025215 
L 423.012725 260.141346 
L 424.052337 260.323116 
L 424.606796 260.459444 
L 425.299871 260.621018 
L 425.646408 260.711903 
L 428.002861 261.115836 
L 428.83455 261.307705 
L 429.042473 261.383443 
L 429.38901 261.45918 
L 429.596932 261.545016 
L 430.012777 261.646 
L 430.428621 261.736885 
L 431.81477 261.943901 
L 435.280142 262.595244 
L 436.458369 262.782063 
L 438.05244 263.145604 
L 438.537592 263.251636 
L 438.745515 263.382915 
L 439.438589 263.493997 
L 440.200971 263.65557 
L 442.349502 264.019111 
L 443.111883 264.175635 
L 443.389113 264.276619 
L 444.705955 264.463438 
L 445.052492 264.518979 
L 446.161411 264.630061 
L 450.458472 265.458125 
L 451.082239 265.564158 
L 454.686226 266.195304 
L 455.240686 266.250845 
L 456.418913 266.437664 
L 457.181294 266.558845 
L 458.082291 266.664877 
L 458.844673 266.791107 
L 459.74567 266.902188 
L 460.923896 267.089008 
L 461.824893 267.250581 
L 462.656582 267.402056 
L 463.141735 267.50304 
L 463.696194 267.588876 
L 464.250654 267.715105 
L 465.42888 267.881728 
L 465.636803 267.967564 
L 467.438796 268.209924 
L 469.864557 268.634055 
L 470.765553 268.805726 
L 473.052699 269.194513 
L 473.815081 269.275299 
L 474.161618 269.33084 
L 474.924 269.492414 
L 475.617074 269.628742 
L 477.141838 269.850905 
L 478.597294 270.275036 
L 479.844828 270.477003 
L 480.60721 270.638576 
L 482.963663 271.047559 
L 483.379508 271.153592 
L 488.646874 272.006902 
L 488.854796 272.107885 
L 494.191469 272.774376 
L 495.577618 272.976343 
L 496.201385 273.102572 
L 497.864764 273.334834 
L 498.696453 273.471162 
L 500.844984 273.733719 
L 501.815288 273.91044 
L 506.181657 274.647619 
L 506.458886 274.713258 
L 511.726252 275.758437 
L 512.488634 275.92506 
L 514.013398 276.258305 
L 515.676776 276.480469 
L 516.369851 276.626895 
L 519.696608 277.212599 
L 520.45899 277.384271 
L 521.637217 277.550893 
L 521.845139 277.677123 
L 522.468906 277.788205 
L 523.369903 277.87909 
L 524.409514 278.055811 
L 524.686744 278.166893 
L 534.181864 279.661448 
L 536.469009 280.055283 
L 537.924466 280.242102 
L 538.34031 280.408725 
L 539.449229 280.595545 
L 540.142304 280.68643 
L 543.538369 281.282232 
L 543.884906 281.332724 
L 544.30075 281.443806 
L 545.40967 281.665969 
L 546.449281 281.847739 
L 547.696815 282.014362 
L 548.528504 282.125444 
L 549.221579 282.216329 
L 551.300802 282.473837 
L 551.508724 282.569771 
L 553.102796 282.903016 
L 553.449333 282.978754 
L 554.0731 283.135278 
L 556.221631 283.539212 
L 556.49886 283.594753 
L 556.914705 283.705835 
L 566.894977 285.250882 
L 567.449436 285.412455 
L 568.627663 285.518488 
L 569.597967 285.705307 
L 570.706886 285.81134 
L 572.162343 286.134487 
L 572.716802 286.255667 
L 572.994032 286.386946 
L 574.518796 286.60406 
L 575.003948 286.694945 
L 576.598019 286.932256 
L 581.657462 287.76537 
L 582.211922 287.891599 
L 582.974304 288.00773 
L 583.598071 288.154156 
L 584.98422 288.457106 
L 586.231753 288.643926 
L 586.85552 288.760057 
L 588.310977 288.972122 
L 588.657514 289.012515 
L 589.627818 289.184187 
L 589.905048 289.280122 
L 591.360504 289.588121 
L 591.707041 289.65881 
L 592.677346 289.769891 
L 593.855572 289.921366 
L 594.548647 290.027399 
L 595.380336 290.158678 
L 596.35064 290.315202 
L 596.766485 290.421235 
L 597.320944 290.522218 
L 597.806096 290.658546 
L 599.400168 291.022086 
L 600.231857 291.133168 
L 600.786317 291.224053 
L 602.726925 291.597692 
L 603.004155 291.663331 
L 604.320996 291.951134 
L 605.014071 292.148052 
L 605.707145 292.289428 
L 606.12299 292.390412 
L 608.132906 292.637821 
L 609.311132 292.870083 
L 609.934899 293.067001 
L 610.420051 293.142739 
L 611.459663 293.31946 
L 612.915119 293.637558 
L 613.677501 293.783984 
L 614.093346 293.900115 
L 615.06365 294.061688 
L 615.410187 294.157622 
L 616.103261 294.268704 
L 617.974562 294.637294 
L 618.3211 294.738277 
L 619.083482 294.894802 
L 619.499326 294.985687 
L 620.885475 295.182604 
L 621.232012 295.243194 
L 621.925087 295.349227 
L 622.548854 295.435063 
L 623.311236 295.541096 
L 624.489462 295.69762 
L 625.113229 295.798603 
L 627.885527 296.293422 
L 628.855831 296.460045 
L 629.063753 296.530733 
L 639.7371 298.757419 
L 640.014329 298.8685 
L 641.053941 299.075517 
L 641.747015 299.186598 
L 642.370782 299.348172 
L 643.479701 299.534991 
L 652.628284 301.428431 
L 653.252051 301.564759 
L 653.737203 301.696037 
L 654.36097 301.852561 
L 655.608504 302.195905 
L 656.370886 302.306987 
L 657.133268 302.443315 
L 657.410498 302.554396 
L 658.380802 302.71597 
L 659.004569 302.872494 
L 661.430329 303.296625 
L 662.677863 303.493543 
L 663.925397 303.857083 
L 664.271934 303.953017 
L 664.826394 304.104492 
L 666.905617 304.493279 
L 667.252154 304.594262 
L 672.51952 305.634392 
L 673.281902 305.790916 
L 673.489824 305.866654 
L 674.737358 306.124162 
L 675.014588 306.230194 
L 680.281954 307.654061 
L 680.628491 307.775241 
L 681.668103 308.052946 
L 682.153255 308.184224 
L 682.915637 308.360945 
L 683.331481 308.461929 
L 683.816633 308.714387 
L 684.509708 308.926452 
L 685.064167 309.012288 
L 687.074083 309.375829 
L 687.282006 309.446517 
L 688.52954 309.638386 
L 689.430536 309.911041 
L 689.638459 310.092811 
L 689.915688 310.203893 
L 690.40084 310.350319 
L 690.539455 310.516942 
L 691.024607 310.653269 
L 691.786989 311.072351 
L 692.410756 311.178383 
L 692.965216 311.339957 
L 693.588983 311.496481 
L 698.579119 312.839561 
L 699.480116 313.001135 
L 705.925708 315.232869 
L 706.68809 315.354049 
L 706.896012 315.556016 
L 707.381164 315.707491 
L 707.727701 315.848868 
L 708.559391 315.985196 
L 709.321772 316.136671 
L 709.806925 316.272999 
L 710.361384 316.459818 
L 711.886148 317.24244 
L 712.3713 317.388866 
L 712.925759 317.706964 
L 713.133682 317.969521 
L 715.143598 318.504733 
L 715.698057 318.711749 
L 716.876284 319.171224 
L 717.084206 319.342896 
L 718.747585 319.903354 
L 719.024814 320.004337 
L 720.341656 320.554697 
L 720.549578 320.685976 
L 720.896115 320.872795 
L 721.104038 321.044467 
L 721.58919 321.140401 
L 723.807028 322.155285 
L 724.153565 322.301711 
L 725.747636 323.170168 
L 725.955559 323.321644 
L 726.024866 323.34184 
L 726.232789 323.609446 
L 727.064478 323.8922 
L 727.54963 324.169905 
L 728.866471 324.639478 
L 729.906083 325.528132 
L 730.044698 325.755345 
L 730.668465 326.043148 
L 731.08431 326.184525 
L 731.430847 326.452131 
L 731.569462 326.679343 
L 731.777384 326.734884 
L 732.123921 327.153966 
L 732.470458 327.254949 
L 732.609073 327.421572 
L 732.816996 327.527604 
L 733.024918 327.694227 
L 733.23284 328.072915 
L 733.51007 328.451603 
L 733.856607 328.567734 
L 734.203145 329.027209 
L 734.341759 329.032258 
L 734.480374 329.340257 
L 734.688297 329.451339 
L 734.896219 329.890617 
L 735.242756 330.198617 
L 735.450678 330.471272 
L 735.519986 330.48642 
L 735.797216 330.860058 
L 736.074445 331.001435 
L 736.21306 331.173107 
L 736.351675 331.193304 
L 736.559598 331.364976 
L 736.628905 331.380123 
L 736.836827 331.546746 
L 737.321979 332.102155 
L 737.529902 332.223335 
L 737.945746 332.753498 
L 738.084361 332.773695 
L 738.222976 333.041301 
L 738.292284 333.066547 
L 738.430899 333.404841 
L 738.500206 333.41494 
L 739.19328 334.551004 
L 739.886355 335.151855 
L 740.02497 335.404314 
L 740.232892 335.495199 
L 740.440814 336.141493 
L 740.787352 336.590869 
L 741.203196 337.62595 
L 741.757656 338.711522 
L 741.965578 339.499193 
L 742.1735 339.827389 
L 742.242808 339.837487 
L 742.381423 340.160634 
L 742.797267 340.670601 
L 743.00519 341.670337 
L 743.074497 341.720829 
L 743.698264 344.068694 
L 743.906187 345.512758 
L 743.975494 345.522856 
L 744.183416 346.845739 
L 744.322031 348.032295 
L 744.460646 349.481407 
L 744.529954 349.698522 
L 744.807183 351.763633 
L 745.015106 352.627042 
L 745.292335 353.965073 
L 745.361643 353.970122 
L 745.500258 360.291686 
L 745.569565 360.372473 
L 745.777488 365.749842 
L 745.777488 365.749842 
" clip-path="url(#pbc1578cb84)" style="fill: none; stroke: #1f77b4; stroke-width: 0.8; stroke-linecap: square"/>
   </g>
   <g id="LineCollection_1">
    <path d="M 138.436364 369.36 
L 747.163636 369.36 
" clip-path="url(#pbc1578cb84)" style="fill: none; stroke-dasharray: 9.6,2.4,1.5,2.4; stroke-dashoffset: 0; stroke: #800080; stroke-width: 1.5"/>
   </g>
   <g id="LineCollection_2">
    <path d="M 138.436364 360.210899 
L 747.163636 360.210899 
" clip-path="url(#pbc1578cb84)" style="fill: none; stroke-dasharray: 9.6,2.4,1.5,2.4; stroke-dashoffset: 0; stroke: #a52a2a; stroke-width: 1.5"/>
   </g>
   <g id="LineCollection_3">
    <path d="M 138.436364 344.851316 
L 747.163636 344.851316 
" clip-path="url(#pbc1578cb84)" style="fill: none; stroke-dasharray: 9.6,2.4,1.5,2.4; stroke-dashoffset: 0; stroke: #ffa500; stroke-width: 1.5"/>
   </g>
   <g id="LineCollection_4">
    <path d="M 138.436364 66.96 
L 747.163636 66.96 
" clip-path="url(#pbc1578cb84)" style="fill: none; stroke-dasharray: 9.6,2.4,1.5,2.4; stroke-dashoffset: 0; stroke: #ff0000; stroke-width: 1.5"/>
   </g>
   <g id="patch_3">
    <path d="M 108 384.48 
L 108 51.84 
" style="fill: none; stroke: #000000; stroke-width: 0.8; stroke-linejoin: miter; stroke-linecap: square"/>
   </g>
   <g id="patch_4">
    <path d="M 777.6 384.48 
L 777.6 51.84 
" style="fill: none; stroke: #000000; stroke-width: 0.8; stroke-linejoin: miter; stroke-linecap: square"/>
   </g>
   <g id="patch_5">
    <path d="M 108 384.48 
L 777.6 384.48 
" style="fill: none; stroke: #000000; stroke-width: 0.8; stroke-linejoin: miter; stroke-linecap: square"/>
   </g>
   <g id="patch_6">
    <path d="M 108 51.84 
L 777.6 51.84 
" style="fill: none; stroke: #000000; stroke-width: 0.8; stroke-linejoin: miter; stroke-linecap: square"/>
   </g>
   <g id="text_14">
    <!-- Monotone de consommation nette et capacités optimales par centrale -->
    <g transform="translate(231.13875 45.84) scale(0.12 -0.12)">
     <defs>
      <path id="DejaVuSans-4d" d="M 628 4666 
L 1569 4666 
L 2759 1491 
L 3956 4666 
L 4897 4666 
L 4897 0 
L 4281 0 
L 4281 4097 
L 3078 897 
L 2444 897 
L 1241 4097 
L 1241 0 
L 628 0 
L 628 4666 
z
" transform="scale(0.015625)"/>
      <path id="DejaVuSans-6c" d="M 603 4863 
L 1178 4863 
L 1178 0 
L 603 0 
L 603 4863 
z
" transform="scale(0.015625)"/>
     </defs>
     <use xlink:href="#DejaVuSans-4d"/>
     <use xlink:href="#DejaVuSans-6f" transform="translate(86.279297 0)"/>
     <use xlink:href="#DejaVuSans-6e" transform="translate(147.460938 0)"/>
     <use xlink:href="#DejaVuSans-6f" transform="translate(210.839844 0)"/>
     <use xlink:href="#DejaVuSans-74" transform="translate(272.021484 0)"/>
     <use xlink:href="#DejaVuSans-6f" transform="translate(311.230469 0)"/>
     <use xlink:href="#DejaVuSans-6e" transform="translate(372.412109 0)"/>
     <use xlink:href="#DejaVuSans-65" transform="translate(435.791016 0)"/>
     <use xlink:href="#DejaVuSans-20" transform="translate(497.314453 0)"/>
     <use xlink:href="#DejaVuSans-64" transform="translate(529.101562 0)"/>
     <use xlink:href="#DejaVuSans-65" transform="translate(592.578125 0)"/>
     <use xlink:href="#DejaVuSans-20" transform="translate(654.101562 0)"/>
     <use xlink:href="#DejaVuSans-63" transform="translate(685.888672 0)"/>
     <use xlink:href="#DejaVuSans-6f" transform="translate(740.869141 0)"/>
     <use xlink:href="#DejaVuSans-6e" transform="translate(802.050781 0)"/>
     <use xlink:href="#DejaVuSans-73" transform="translate(865.429688 0)"/>
     <use xlink:href="#DejaVuSans-6f" transform="translate(917.529297 0)"/>
     <use xlink:href="#DejaVuSans-6d" transform="translate(978.710938 0)"/>
     <use xlink:href="#DejaVuSans-6d" transform="translate(1076.123047 0)"/>
     <use xlink:href="#DejaVuSans-61" transform="translate(1173.535156 0)"/>
     <use xlink:href="#DejaVuSans-74" transform="translate(1234.814453 0)"/>
     <use xlink:href="#DejaVuSans-69" transform="translate(1274.023438 0)"/>
     <use xlink:href="#DejaVuSans-6f" transform="translate(1301.806641 0)"/>
     <use xlink:href="#DejaVuSans-6e" transform="translate(1362.988281 0)"/>
     <use xlink:href="#DejaVuSans-20" transform="translate(1426.367188 0)"/>
     <use xlink:href="#DejaVuSans-6e" transform="translate(1458.154297 0)"/>
     <use xlink:href="#DejaVuSans-65" transform="translate(1521.533203 0)"/>
     <use xlink:href="#DejaVuSans-74" transform="translate(1583.056641 0)"/>
     <use xlink:href="#DejaVuSans-74" transform="translate(1622.265625 0)"/>
     <use xlink:href="#DejaVuSans-65" transform="translate(1661.474609 0)"/>
     <use xlink:href="#DejaVuSans-20" transform="translate(1722.998047 0)"/>
     <use xlink:href="#DejaVuSans-65" transform="translate(1754.785156 0)"/>
     <use xlink:href="#DejaVuSans-74" transform="translate(1816.308594 0)"/>
     <use xlink:href="#DejaVuSans-20" transform="translate(1855.517578 0)"/>
     <use xlink:href="#DejaVuSans-63" transform="translate(1887.304688 0)"/>
     <use xlink:href="#DejaVuSans-61" transform="translate(1942.285156 0)"/>
     <use xlink:href="#DejaVuSans-70" transform="translate(2003.564453 0)"/>
     <use xlink:href="#DejaVuSans-61" transform="translate(2067.041016 0)"/>
     <use xlink:href="#DejaVuSans-63" transform="translate(2128.320312 0)"/>
     <use xlink:href="#DejaVuSans-69" transform="translate(2183.300781 0)"/>
     <use xlink:href="#DejaVuSans-74" transform="translate(2211.083984 0)"/>
     <use xlink:href="#DejaVuSans-e9" transform="translate(2250.292969 0)"/>
     <use xlink:href="#DejaVuSans-73" transform="translate(2311.816406 0)"/>
     <use xlink:href="#DejaVuSans-20" transform="translate(2363.916016 0)"/>
     <use xlink:href="#DejaVuSans-6f" transform="translate(2395.703125 0)"/>
     <use xlink:href="#DejaVuSans-70" transform="translate(2456.884766 0)"/>
     <use xlink:href="#DejaVuSans-74" transform="translate(2520.361328 0)"/>
     <use xlink:href="#DejaVuSans-69" transform="translate(2559.570312 0)"/>
     <use xlink:href="#DejaVuSans-6d" transform="translate(2587.353516 0)"/>
     <use xlink:href="#DejaVuSans-61" transform="translate(2684.765625 0)"/>
     <use xlink:href="#DejaVuSans-6c" transform="translate(2746.044922 0)"/>
     <use xlink:href="#DejaVuSans-65" transform="translate(2773.828125 0)"/>
     <use xlink:href="#DejaVuSans-73" transform="translate(2835.351562 0)"/>
     <use xlink:href="#DejaVuSans-20" transform="translate(2887.451172 0)"/>
     <use xlink:href="#DejaVuSans-70" transform="translate(2919.238281 0)"/>
     <use xlink:href="#DejaVuSans-61" transform="translate(2982.714844 0)"/>
     <use xlink:href="#DejaVuSans-72" transform="translate(3043.994141 0)"/>
     <use xlink:href="#DejaVuSans-20" transform="translate(3085.107422 0)"/>
     <use xlink:href="#DejaVuSans-63" transform="translate(3116.894531 0)"/>
     <use xlink:href="#DejaVuSans-65" transform="translate(3171.875 0)"/>
     <use xlink:href="#DejaVuSans-6e" transform="translate(3233.398438 0)"/>
     <use xlink:href="#DejaVuSans-74" transform="translate(3296.777344 0)"/>
     <use xlink:href="#DejaVuSans-72" transform="translate(3335.986328 0)"/>
     <use xlink:href="#DejaVuSans-61" transform="translate(3377.099609 0)"/>
     <use xlink:href="#DejaVuSans-6c" transform="translate(3438.378906 0)"/>
     <use xlink:href="#DejaVuSans-65" transform="translate(3466.162109 0)"/>
    </g>
   </g>
   <g id="legend_1">
    <g id="patch_7">
     <path d="M 537.682812 133.230625 
L 770.6 133.230625 
Q 772.6 133.230625 772.6 131.230625 
L 772.6 58.84 
Q 772.6 56.84 770.6 56.84 
L 537.682812 56.84 
Q 535.682812 56.84 535.682812 58.84 
L 535.682812 131.230625 
Q 535.682812 133.230625 537.682812 133.230625 
z
" style="fill: #ffffff; opacity: 0.8; stroke: #cccccc; stroke-linejoin: miter"/>
    </g>
    <g id="line2d_24">
     <path d="M 539.682812 64.938437 
L 549.682812 64.938437 
L 559.682812 64.938437 
" style="fill: none; stroke: #1f77b4; stroke-width: 0.8; stroke-linecap: square"/>
    </g>
    <g id="text_15">
     <!-- Monotone de consommation nette (GW) -->
     <g transform="translate(567.682812 68.438437) scale(0.1 -0.1)">
      <use xlink:href="#DejaVuSans-4d"/>
      <use xlink:href="#DejaVuSans-6f" transform="translate(86.279297 0)"/>
      <use xlink:href="#DejaVuSans-6e" transform="translate(147.460938 0)"/>
      <use xlink:href="#DejaVuSans-6f" transform="translate(210.839844 0)"/>
      <use xlink:href="#DejaVuSans-74" transform="translate(272.021484 0)"/>
      <use xlink:href="#DejaVuSans-6f" transform="translate(311.230469 0)"/>
      <use xlink:href="#DejaVuSans-6e" transform="translate(372.412109 0)"/>
      <use xlink:href="#DejaVuSans-65" transform="translate(435.791016 0)"/>
      <use xlink:href="#DejaVuSans-20" transform="translate(497.314453 0)"/>
      <use xlink:href="#DejaVuSans-64" transform="translate(529.101562 0)"/>
      <use xlink:href="#DejaVuSans-65" transform="translate(592.578125 0)"/>
      <use xlink:href="#DejaVuSans-20" transform="translate(654.101562 0)"/>
      <use xlink:href="#DejaVuSans-63" transform="translate(685.888672 0)"/>
      <use xlink:href="#DejaVuSans-6f" transform="translate(740.869141 0)"/>
      <use xlink:href="#DejaVuSans-6e" transform="translate(802.050781 0)"/>
      <use xlink:href="#DejaVuSans-73" transform="translate(865.429688 0)"/>
      <use xlink:href="#DejaVuSans-6f" transform="translate(917.529297 0)"/>
      <use xlink:href="#DejaVuSans-6d" transform="translate(978.710938 0)"/>
      <use xlink:href="#DejaVuSans-6d" transform="translate(1076.123047 0)"/>
      <use xlink:href="#DejaVuSans-61" transform="translate(1173.535156 0)"/>
      <use xlink:href="#DejaVuSans-74" transform="translate(1234.814453 0)"/>
      <use xlink:href="#DejaVuSans-69" transform="translate(1274.023438 0)"/>
      <use xlink:href="#DejaVuSans-6f" transform="translate(1301.806641 0)"/>
      <use xlink:href="#DejaVuSans-6e" transform="translate(1362.988281 0)"/>
      <use xlink:href="#DejaVuSans-20" transform="translate(1426.367188 0)"/>
      <use xlink:href="#DejaVuSans-6e" transform="translate(1458.154297 0)"/>
      <use xlink:href="#DejaVuSans-65" transform="translate(1521.533203 0)"/>
      <use xlink:href="#DejaVuSans-74" transform="translate(1583.056641 0)"/>
      <use xlink:href="#DejaVuSans-74" transform="translate(1622.265625 0)"/>
      <use xlink:href="#DejaVuSans-65" transform="translate(1661.474609 0)"/>
      <use xlink:href="#DejaVuSans-20" transform="translate(1722.998047 0)"/>
      <use xlink:href="#DejaVuSans-28" transform="translate(1754.785156 0)"/>
      <use xlink:href="#DejaVuSans-47" transform="translate(1793.798828 0)"/>
      <use xlink:href="#DejaVuSans-57" transform="translate(1871.289062 0)"/>
      <use xlink:href="#DejaVuSans-29" transform="translate(1970.166016 0)"/>
     </g>
    </g>
    <g id="line2d_25">
     <path d="M 539.682812 79.616562 
L 559.682812 79.616562 
" style="fill: none; stroke-dasharray: 9.6,2.4,1.5,2.4; stroke-dashoffset: 0; stroke: #800080; stroke-width: 1.5"/>
    </g>
    <g id="text_16">
     <!-- Fossil Gas optimal -->
     <g transform="translate(567.682812 83.116562) scale(0.1 -0.1)">
      <defs>
       <path id="DejaVuSans-46" d="M 628 4666 
L 3309 4666 
L 3309 4134 
L 1259 4134 
L 1259 2759 
L 3109 2759 
L 3109 2228 
L 1259 2228 
L 1259 0 
L 628 0 
L 628 4666 
z
" transform="scale(0.015625)"/>
      </defs>
      <use xlink:href="#DejaVuSans-46"/>
      <use xlink:href="#DejaVuSans-6f" transform="translate(53.894531 0)"/>
      <use xlink:href="#DejaVuSans-73" transform="translate(115.076172 0)"/>
      <use xlink:href="#DejaVuSans-73" transform="translate(167.175781 0)"/>
      <use xlink:href="#DejaVuSans-69" transform="translate(219.275391 0)"/>
      <use xlink:href="#DejaVuSans-6c" transform="translate(247.058594 0)"/>
      <use xlink:href="#DejaVuSans-20" transform="translate(274.841797 0)"/>
      <use xlink:href="#DejaVuSans-47" transform="translate(306.628906 0)"/>
      <use xlink:href="#DejaVuSans-61" transform="translate(384.119141 0)"/>
      <use xlink:href="#DejaVuSans-73" transform="translate(445.398438 0)"/>
      <use xlink:href="#DejaVuSans-20" transform="translate(497.498047 0)"/>
      <use xlink:href="#DejaVuSans-6f" transform="translate(529.285156 0)"/>
      <use xlink:href="#DejaVuSans-70" transform="translate(590.466797 0)"/>
      <use xlink:href="#DejaVuSans-74" transform="translate(653.943359 0)"/>
      <use xlink:href="#DejaVuSans-69" transform="translate(693.152344 0)"/>
      <use xlink:href="#DejaVuSans-6d" transform="translate(720.935547 0)"/>
      <use xlink:href="#DejaVuSans-61" transform="translate(818.347656 0)"/>
      <use xlink:href="#DejaVuSans-6c" transform="translate(879.626953 0)"/>
     </g>
    </g>
    <g id="line2d_26">
     <path d="M 539.682812 94.294687 
L 559.682812 94.294687 
" style="fill: none; stroke-dasharray: 9.6,2.4,1.5,2.4; stroke-dashoffset: 0; stroke: #a52a2a; stroke-width: 1.5"/>
    </g>
    <g id="text_17">
     <!-- Fossil Hard coal optimal -->
     <g transform="translate(567.682812 97.794687) scale(0.1 -0.1)">
      <use xlink:href="#DejaVuSans-46"/>
      <use xlink:href="#DejaVuSans-6f" transform="translate(53.894531 0)"/>
      <use xlink:href="#DejaVuSans-73" transform="translate(115.076172 0)"/>
      <use xlink:href="#DejaVuSans-73" transform="translate(167.175781 0)"/>
      <use xlink:href="#DejaVuSans-69" transform="translate(219.275391 0)"/>
      <use xlink:href="#DejaVuSans-6c" transform="translate(247.058594 0)"/>
      <use xlink:href="#DejaVuSans-20" transform="translate(274.841797 0)"/>
      <use xlink:href="#DejaVuSans-48" transform="translate(306.628906 0)"/>
      <use xlink:href="#DejaVuSans-61" transform="translate(381.824219 0)"/>
      <use xlink:href="#DejaVuSans-72" transform="translate(443.103516 0)"/>
      <use xlink:href="#DejaVuSans-64" transform="translate(482.466797 0)"/>
      <use xlink:href="#DejaVuSans-20" transform="translate(545.943359 0)"/>
      <use xlink:href="#DejaVuSans-63" transform="translate(577.730469 0)"/>
      <use xlink:href="#DejaVuSans-6f" transform="translate(632.710938 0)"/>
      <use xlink:href="#DejaVuSans-61" transform="translate(693.892578 0)"/>
      <use xlink:href="#DejaVuSans-6c" transform="translate(755.171875 0)"/>
      <use xlink:href="#DejaVuSans-20" transform="translate(782.955078 0)"/>
      <use xlink:href="#DejaVuSans-6f" transform="translate(814.742188 0)"/>
      <use xlink:href="#DejaVuSans-70" transform="translate(875.923828 0)"/>
      <use xlink:href="#DejaVuSans-74" transform="translate(939.400391 0)"/>
      <use xlink:href="#DejaVuSans-69" transform="translate(978.609375 0)"/>
      <use xlink:href="#DejaVuSans-6d" transform="translate(1006.392578 0)"/>
      <use xlink:href="#DejaVuSans-61" transform="translate(1103.804688 0)"/>
      <use xlink:href="#DejaVuSans-6c" transform="translate(1165.083984 0)"/>
     </g>
    </g>
    <g id="line2d_27">
     <path d="M 539.682812 108.972812 
L 559.682812 108.972812 
" style="fill: none; stroke-dasharray: 9.6,2.4,1.5,2.4; stroke-dashoffset: 0; stroke: #ffa500; stroke-width: 1.5"/>
    </g>
    <g id="text_18">
     <!-- Fossil Oil optimal -->
     <g transform="translate(567.682812 112.472812) scale(0.1 -0.1)">
      <defs>
       <path id="DejaVuSans-4f" d="M 2522 4238 
Q 1834 4238 1429 3725 
Q 1025 3213 1025 2328 
Q 1025 1447 1429 934 
Q 1834 422 2522 422 
Q 3209 422 3611 934 
Q 4013 1447 4013 2328 
Q 4013 3213 3611 3725 
Q 3209 4238 2522 4238 
z
M 2522 4750 
Q 3503 4750 4090 4092 
Q 4678 3434 4678 2328 
Q 4678 1225 4090 567 
Q 3503 -91 2522 -91 
Q 1538 -91 948 565 
Q 359 1222 359 2328 
Q 359 3434 948 4092 
Q 1538 4750 2522 4750 
z
" transform="scale(0.015625)"/>
      </defs>
      <use xlink:href="#DejaVuSans-46"/>
      <use xlink:href="#DejaVuSans-6f" transform="translate(53.894531 0)"/>
      <use xlink:href="#DejaVuSans-73" transform="translate(115.076172 0)"/>
      <use xlink:href="#DejaVuSans-73" transform="translate(167.175781 0)"/>
      <use xlink:href="#DejaVuSans-69" transform="translate(219.275391 0)"/>
      <use xlink:href="#DejaVuSans-6c" transform="translate(247.058594 0)"/>
      <use xlink:href="#DejaVuSans-20" transform="translate(274.841797 0)"/>
      <use xlink:href="#DejaVuSans-4f" transform="translate(306.628906 0)"/>
      <use xlink:href="#DejaVuSans-69" transform="translate(385.339844 0)"/>
      <use xlink:href="#DejaVuSans-6c" transform="translate(413.123047 0)"/>
      <use xlink:href="#DejaVuSans-20" transform="translate(440.90625 0)"/>
      <use xlink:href="#DejaVuSans-6f" transform="translate(472.693359 0)"/>
      <use xlink:href="#DejaVuSans-70" transform="translate(533.875 0)"/>
      <use xlink:href="#DejaVuSans-74" transform="translate(597.351562 0)"/>
      <use xlink:href="#DejaVuSans-69" transform="translate(636.560547 0)"/>
      <use xlink:href="#DejaVuSans-6d" transform="translate(664.34375 0)"/>
      <use xlink:href="#DejaVuSans-61" transform="translate(761.755859 0)"/>
      <use xlink:href="#DejaVuSans-6c" transform="translate(823.035156 0)"/>
     </g>
    </g>
    <g id="line2d_28">
     <path d="M 539.682812 123.650937 
L 559.682812 123.650937 
" style="fill: none; stroke-dasharray: 9.6,2.4,1.5,2.4; stroke-dashoffset: 0; stroke: #ff0000; stroke-width: 1.5"/>
    </g>
    <g id="text_19">
     <!-- Nuclear optimal -->
     <g transform="translate(567.682812 127.150937) scale(0.1 -0.1)">
      <defs>
       <path id="DejaVuSans-4e" d="M 628 4666 
L 1478 4666 
L 3547 763 
L 3547 4666 
L 4159 4666 
L 4159 0 
L 3309 0 
L 1241 3903 
L 1241 0 
L 628 0 
L 628 4666 
z
" transform="scale(0.015625)"/>
      </defs>
      <use xlink:href="#DejaVuSans-4e"/>
      <use xlink:href="#DejaVuSans-75" transform="translate(74.804688 0)"/>
      <use xlink:href="#DejaVuSans-63" transform="translate(138.183594 0)"/>
      <use xlink:href="#DejaVuSans-6c" transform="translate(193.164062 0)"/>
      <use xlink:href="#DejaVuSans-65" transform="translate(220.947266 0)"/>
      <use xlink:href="#DejaVuSans-61" transform="translate(282.470703 0)"/>
      <use xlink:href="#DejaVuSans-72" transform="translate(343.75 0)"/>
      <use xlink:href="#DejaVuSans-20" transform="translate(384.863281 0)"/>
      <use xlink:href="#DejaVuSans-6f" transform="translate(416.650391 0)"/>
      <use xlink:href="#DejaVuSans-70" transform="translate(477.832031 0)"/>
      <use xlink:href="#DejaVuSans-74" transform="translate(541.308594 0)"/>
      <use xlink:href="#DejaVuSans-69" transform="translate(580.517578 0)"/>
      <use xlink:href="#DejaVuSans-6d" transform="translate(608.300781 0)"/>
      <use xlink:href="#DejaVuSans-61" transform="translate(705.712891 0)"/>
      <use xlink:href="#DejaVuSans-6c" transform="translate(766.992188 0)"/>
     </g>
    </g>
   </g>
  </g>
 </g>
 <defs>
  <clipPath id="pbc1578cb84">
   <rect x="108" y="51.84" width="669.6" height="332.64"/>
  </clipPath>
 </defs>
</svg>
