<?xml version="1.0" encoding="utf-8" standalone="no"?>
<!DOCTYPE svg PUBLIC "-//W3C//DTD SVG 1.1//EN"
  "http://www.w3.org/Graphics/SVG/1.1/DTD/svg11.dtd">
<svg xmlns:xlink="http://www.w3.org/1999/xlink" width="720pt" height="360pt" viewBox="0 0 720 360" xmlns="http://www.w3.org/2000/svg" version="1.1">
 <metadata>
  <rdf:RDF xmlns:dc="http://purl.org/dc/elements/1.1/" xmlns:cc="http://creativecommons.org/ns#" xmlns:rdf="http://www.w3.org/1999/02/22-rdf-syntax-ns#">
   <cc:Work>
    <dc:type rdf:resource="http://purl.org/dc/dcmitype/StillImage"/>
    <dc:date>2025-11-13T15:07:40.108405</dc:date>
    <dc:format>image/svg+xml</dc:format>
    <dc:creator>
     <cc:Agent>
      <dc:title>Matplotlib v3.10.6, https://matplotlib.org/</dc:title>
     </cc:Agent>
    </dc:creator>
   </cc:Work>
  </rdf:RDF>
 </metadata>
 <defs>
  <style type="text/css">*{stroke-linejoin: round; stroke-linecap: butt}</style>
 </defs>
 <g id="figure_1">
  <g id="patch_1">
   <path d="M 0 360 
L 720 360 
L 720 0 
L 0 0 
z
" style="fill: #ffffff"/>
  </g>
  <g id="axes_1">
   <g id="patch_2">
    <path d="M 63.47 318.04 
L 709.2 318.04 
L 709.2 26.88 
L 63.47 26.88 
z
" style="fill: #ffffff"/>
   </g>
   <g id="PathCollection_1">
    <defs>
     <path id="m826e184306" d="M 0 3 
C 0.795609 3 1.55874 2.683901 2.12132 2.12132 
C 2.683901 1.55874 3 0.795609 3 0 
C 3 -0.795609 2.683901 -1.55874 2.12132 -2.12132 
C 1.55874 -2.683901 0.795609 -3 0 -3 
C -0.795609 -3 -1.55874 -2.683901 -2.12132 -2.12132 
C -2.683901 -1.55874 -3 -0.795609 -3 0 
C -3 0.795609 -2.683901 1.55874 -2.12132 2.12132 
C -1.55874 2.683901 -0.795609 3 0 3 
z
" style="stroke: #ff0000"/>
    </defs>
    <g clip-path="url(#p0a622bd29e)">
     <use xlink:href="#m826e184306" x="92.821364" y="40.114545" style="fill: #ff0000; stroke: #ff0000"/>
    </g>
   </g>
   <g id="PathCollection_2">
    <defs>
     <path id="mfa80d753f8" d="M 0 3 
C 0.795609 3 1.55874 2.683901 2.12132 2.12132 
C 2.683901 1.55874 3 0.795609 3 0 
C 3 -0.795609 2.683901 -1.55874 2.12132 -2.12132 
C 1.55874 -2.683901 0.795609 -3 0 -3 
C -0.795609 -3 -1.55874 -2.683901 -2.12132 -2.12132 
C -2.683901 -1.55874 -3 -0.795609 -3 0 
C -3 0.795609 -2.683901 1.55874 -2.12132 2.12132 
C -1.55874 2.683901 -0.795609 3 0 3 
z
" style="stroke: #008000"/>
    </defs>
    <g clip-path="url(#p0a622bd29e)">
     <use xlink:href="#mfa80d753f8" x="679.848636" y="304.805455" style="fill: #008000; stroke: #008000"/>
    </g>
   </g>
   <g id="matplotlib.axis_1">
    <g id="xtick_1">
     <g id="line2d_1">
      <path d="M 92.821364 318.04 
L 92.821364 26.88 
" clip-path="url(#p0a622bd29e)" style="fill: none; stroke-dasharray: 2.96,1.28; stroke-dashoffset: 0; stroke: #b0b0b0; stroke-opacity: 0.5; stroke-width: 0.8"/>
     </g>
     <g id="line2d_2">
      <defs>
       <path id="m957de8ce74" d="M 0 0 
L 0 3.5 
" style="stroke: #000000; stroke-width: 0.8"/>
      </defs>
      <g>
       <use xlink:href="#m957de8ce74" x="92.821364" y="318.04" style="stroke: #000000; stroke-width: 0.8"/>
      </g>
     </g>
     <g id="text_1">
      <!-- 0 -->
      <g transform="translate(89.640114 332.638438) scale(0.1 -0.1)">
       <defs>
        <path id="DejaVuSans-30" d="M 2034 4250 
Q 1547 4250 1301 3770 
Q 1056 3291 1056 2328 
Q 1056 1369 1301 889 
Q 1547 409 2034 409 
Q 2525 409 2770 889 
Q 3016 1369 3016 2328 
Q 3016 3291 2770 3770 
Q 2525 4250 2034 4250 
z
M 2034 4750 
Q 2819 4750 3233 4129 
Q 3647 3509 3647 2328 
Q 3647 1150 3233 529 
Q 2819 -91 2034 -91 
Q 1250 -91 836 529 
Q 422 1150 422 2328 
Q 422 3509 836 4129 
Q 1250 4750 2034 4750 
z
" transform="scale(0.015625)"/>
       </defs>
       <use xlink:href="#DejaVuSans-30"/>
      </g>
     </g>
    </g>
    <g id="xtick_2">
     <g id="line2d_3">
      <path d="M 226.494886 318.04 
L 226.494886 26.88 
" clip-path="url(#p0a622bd29e)" style="fill: none; stroke-dasharray: 2.96,1.28; stroke-dashoffset: 0; stroke: #b0b0b0; stroke-opacity: 0.5; stroke-width: 0.8"/>
     </g>
     <g id="line2d_4">
      <g>
       <use xlink:href="#m957de8ce74" x="226.494886" y="318.04" style="stroke: #000000; stroke-width: 0.8"/>
      </g>
     </g>
     <g id="text_2">
      <!-- 2000 -->
      <g transform="translate(213.769886 332.638438) scale(0.1 -0.1)">
       <defs>
        <path id="DejaVuSans-32" d="M 1228 531 
L 3431 531 
L 3431 0 
L 469 0 
L 469 531 
Q 828 903 1448 1529 
Q 2069 2156 2228 2338 
Q 2531 2678 2651 2914 
Q 2772 3150 2772 3378 
Q 2772 3750 2511 3984 
Q 2250 4219 1831 4219 
Q 1534 4219 1204 4116 
Q 875 4013 500 3803 
L 500 4441 
Q 881 4594 1212 4672 
Q 1544 4750 1819 4750 
Q 2544 4750 2975 4387 
Q 3406 4025 3406 3419 
Q 3406 3131 3298 2873 
Q 3191 2616 2906 2266 
Q 2828 2175 2409 1742 
Q 1991 1309 1228 531 
z
" transform="scale(0.015625)"/>
       </defs>
       <use xlink:href="#DejaVuSans-32"/>
       <use xlink:href="#DejaVuSans-30" transform="translate(63.623047 0)"/>
       <use xlink:href="#DejaVuSans-30" transform="translate(127.246094 0)"/>
       <use xlink:href="#DejaVuSans-30" transform="translate(190.869141 0)"/>
      </g>
     </g>
    </g>
    <g id="xtick_3">
     <g id="line2d_5">
      <path d="M 360.168408 318.04 
L 360.168408 26.88 
" clip-path="url(#p0a622bd29e)" style="fill: none; stroke-dasharray: 2.96,1.28; stroke-dashoffset: 0; stroke: #b0b0b0; stroke-opacity: 0.5; stroke-width: 0.8"/>
     </g>
     <g id="line2d_6">
      <g>
       <use xlink:href="#m957de8ce74" x="360.168408" y="318.04" style="stroke: #000000; stroke-width: 0.8"/>
      </g>
     </g>
     <g id="text_3">
      <!-- 4000 -->
      <g transform="translate(347.443408 332.638438) scale(0.1 -0.1)">
       <defs>
        <path id="DejaVuSans-34" d="M 2419 4116 
L 825 1625 
L 2419 1625 
L 2419 4116 
z
M 2253 4666 
L 3047 4666 
L 3047 1625 
L 3713 1625 
L 3713 1100 
L 3047 1100 
L 3047 0 
L 2419 0 
L 2419 1100 
L 313 1100 
L 313 1709 
L 2253 4666 
z
" transform="scale(0.015625)"/>
       </defs>
       <use xlink:href="#DejaVuSans-34"/>
       <use xlink:href="#DejaVuSans-30" transform="translate(63.623047 0)"/>
       <use xlink:href="#DejaVuSans-30" transform="translate(127.246094 0)"/>
       <use xlink:href="#DejaVuSans-30" transform="translate(190.869141 0)"/>
      </g>
     </g>
    </g>
    <g id="xtick_4">
     <g id="line2d_7">
      <path d="M 493.84193 318.04 
L 493.84193 26.88 
" clip-path="url(#p0a622bd29e)" style="fill: none; stroke-dasharray: 2.96,1.28; stroke-dashoffset: 0; stroke: #b0b0b0; stroke-opacity: 0.5; stroke-width: 0.8"/>
     </g>
     <g id="line2d_8">
      <g>
       <use xlink:href="#m957de8ce74" x="493.84193" y="318.04" style="stroke: #000000; stroke-width: 0.8"/>
      </g>
     </g>
     <g id="text_4">
      <!-- 6000 -->
      <g transform="translate(481.11693 332.638438) scale(0.1 -0.1)">
       <defs>
        <path id="DejaVuSans-36" d="M 2113 2584 
Q 1688 2584 1439 2293 
Q 1191 2003 1191 1497 
Q 1191 994 1439 701 
Q 1688 409 2113 409 
Q 2538 409 2786 701 
Q 3034 994 3034 1497 
Q 3034 2003 2786 2293 
Q 2538 2584 2113 2584 
z
M 3366 4563 
L 3366 3988 
Q 3128 4100 2886 4159 
Q 2644 4219 2406 4219 
Q 1781 4219 1451 3797 
Q 1122 3375 1075 2522 
Q 1259 2794 1537 2939 
Q 1816 3084 2150 3084 
Q 2853 3084 3261 2657 
Q 3669 2231 3669 1497 
Q 3669 778 3244 343 
Q 2819 -91 2113 -91 
Q 1303 -91 875 529 
Q 447 1150 447 2328 
Q 447 3434 972 4092 
Q 1497 4750 2381 4750 
Q 2619 4750 2861 4703 
Q 3103 4656 3366 4563 
z
" transform="scale(0.015625)"/>
       </defs>
       <use xlink:href="#DejaVuSans-36"/>
       <use xlink:href="#DejaVuSans-30" transform="translate(63.623047 0)"/>
       <use xlink:href="#DejaVuSans-30" transform="translate(127.246094 0)"/>
       <use xlink:href="#DejaVuSans-30" transform="translate(190.869141 0)"/>
      </g>
     </g>
    </g>
    <g id="xtick_5">
     <g id="line2d_9">
      <path d="M 627.515452 318.04 
L 627.515452 26.88 
" clip-path="url(#p0a622bd29e)" style="fill: none; stroke-dasharray: 2.96,1.28; stroke-dashoffset: 0; stroke: #b0b0b0; stroke-opacity: 0.5; stroke-width: 0.8"/>
     </g>
     <g id="line2d_10">
      <g>
       <use xlink:href="#m957de8ce74" x="627.515452" y="318.04" style="stroke: #000000; stroke-width: 0.8"/>
      </g>
     </g>
     <g id="text_5">
      <!-- 8000 -->
      <g transform="translate(614.790452 332.638438) scale(0.1 -0.1)">
       <defs>
        <path id="DejaVuSans-38" d="M 2034 2216 
Q 1584 2216 1326 1975 
Q 1069 1734 1069 1313 
Q 1069 891 1326 650 
Q 1584 409 2034 409 
Q 2484 409 2743 651 
Q 3003 894 3003 1313 
Q 3003 1734 2745 1975 
Q 2488 2216 2034 2216 
z
M 1403 2484 
Q 997 2584 770 2862 
Q 544 3141 544 3541 
Q 544 4100 942 4425 
Q 1341 4750 2034 4750 
Q 2731 4750 3128 4425 
Q 3525 4100 3525 3541 
Q 3525 3141 3298 2862 
Q 3072 2584 2669 2484 
Q 3125 2378 3379 2068 
Q 3634 1759 3634 1313 
Q 3634 634 3220 271 
Q 2806 -91 2034 -91 
Q 1263 -91 848 271 
Q 434 634 434 1313 
Q 434 1759 690 2068 
Q 947 2378 1403 2484 
z
M 1172 3481 
Q 1172 3119 1398 2916 
Q 1625 2713 2034 2713 
Q 2441 2713 2670 2916 
Q 2900 3119 2900 3481 
Q 2900 3844 2670 4047 
Q 2441 4250 2034 4250 
Q 1625 4250 1398 4047 
Q 1172 3844 1172 3481 
z
" transform="scale(0.015625)"/>
       </defs>
       <use xlink:href="#DejaVuSans-38"/>
       <use xlink:href="#DejaVuSans-30" transform="translate(63.623047 0)"/>
       <use xlink:href="#DejaVuSans-30" transform="translate(127.246094 0)"/>
       <use xlink:href="#DejaVuSans-30" transform="translate(190.869141 0)"/>
      </g>
     </g>
    </g>
    <g id="text_6">
     <!-- Heures -->
     <g transform="translate(368.705313 346.316563) scale(0.1 -0.1)">
      <defs>
       <path id="DejaVuSans-48" d="M 628 4666 
L 1259 4666 
L 1259 2753 
L 3553 2753 
L 3553 4666 
L 4184 4666 
L 4184 0 
L 3553 0 
L 3553 2222 
L 1259 2222 
L 1259 0 
L 628 0 
L 628 4666 
z
" transform="scale(0.015625)"/>
       <path id="DejaVuSans-65" d="M 3597 1894 
L 3597 1613 
L 953 1613 
Q 991 1019 1311 708 
Q 1631 397 2203 397 
Q 2534 397 2845 478 
Q 3156 559 3463 722 
L 3463 178 
Q 3153 47 2828 -22 
Q 2503 -91 2169 -91 
Q 1331 -91 842 396 
Q 353 884 353 1716 
Q 353 2575 817 3079 
Q 1281 3584 2069 3584 
Q 2775 3584 3186 3129 
Q 3597 2675 3597 1894 
z
M 3022 2063 
Q 3016 2534 2758 2815 
Q 2500 3097 2075 3097 
Q 1594 3097 1305 2825 
Q 1016 2553 972 2059 
L 3022 2063 
z
" transform="scale(0.015625)"/>
       <path id="DejaVuSans-75" d="M 544 1381 
L 544 3500 
L 1119 3500 
L 1119 1403 
Q 1119 906 1312 657 
Q 1506 409 1894 409 
Q 2359 409 2629 706 
Q 2900 1003 2900 1516 
L 2900 3500 
L 3475 3500 
L 3475 0 
L 2900 0 
L 2900 538 
Q 2691 219 2414 64 
Q 2138 -91 1772 -91 
Q 1169 -91 856 284 
Q 544 659 544 1381 
z
M 1991 3584 
L 1991 3584 
z
" transform="scale(0.015625)"/>
       <path id="DejaVuSans-72" d="M 2631 2963 
Q 2534 3019 2420 3045 
Q 2306 3072 2169 3072 
Q 1681 3072 1420 2755 
Q 1159 2438 1159 1844 
L 1159 0 
L 581 0 
L 581 3500 
L 1159 3500 
L 1159 2956 
Q 1341 3275 1631 3429 
Q 1922 3584 2338 3584 
Q 2397 3584 2469 3576 
Q 2541 3569 2628 3553 
L 2631 2963 
z
" transform="scale(0.015625)"/>
       <path id="DejaVuSans-73" d="M 2834 3397 
L 2834 2853 
Q 2591 2978 2328 3040 
Q 2066 3103 1784 3103 
Q 1356 3103 1142 2972 
Q 928 2841 928 2578 
Q 928 2378 1081 2264 
Q 1234 2150 1697 2047 
L 1894 2003 
Q 2506 1872 2764 1633 
Q 3022 1394 3022 966 
Q 3022 478 2636 193 
Q 2250 -91 1575 -91 
Q 1294 -91 989 -36 
Q 684 19 347 128 
L 347 722 
Q 666 556 975 473 
Q 1284 391 1588 391 
Q 1994 391 2212 530 
Q 2431 669 2431 922 
Q 2431 1156 2273 1281 
Q 2116 1406 1581 1522 
L 1381 1569 
Q 847 1681 609 1914 
Q 372 2147 372 2553 
Q 372 3047 722 3315 
Q 1072 3584 1716 3584 
Q 2034 3584 2315 3537 
Q 2597 3491 2834 3397 
z
" transform="scale(0.015625)"/>
      </defs>
      <use xlink:href="#DejaVuSans-48"/>
      <use xlink:href="#DejaVuSans-65" transform="translate(75.195312 0)"/>
      <use xlink:href="#DejaVuSans-75" transform="translate(136.71875 0)"/>
      <use xlink:href="#DejaVuSans-72" transform="translate(200.097656 0)"/>
      <use xlink:href="#DejaVuSans-65" transform="translate(238.960938 0)"/>
      <use xlink:href="#DejaVuSans-73" transform="translate(300.484375 0)"/>
     </g>
    </g>
   </g>
   <g id="matplotlib.axis_2">
    <g id="ytick_1">
     <g id="line2d_11">
      <path d="M 63.47 302.691906 
L 709.2 302.691906 
" clip-path="url(#p0a622bd29e)" style="fill: none; stroke-dasharray: 2.96,1.28; stroke-dashoffset: 0; stroke: #b0b0b0; stroke-opacity: 0.5; stroke-width: 0.8"/>
     </g>
     <g id="line2d_12">
      <defs>
       <path id="m0f52770c3a" d="M 0 0 
L -3.5 0 
" style="stroke: #000000; stroke-width: 0.8"/>
      </defs>
      <g>
       <use xlink:href="#m0f52770c3a" x="63.47" y="302.691906" style="stroke: #000000; stroke-width: 0.8"/>
      </g>
     </g>
     <g id="text_7">
      <!-- 30000 -->
      <g transform="translate(24.6575 306.491124) scale(0.1 -0.1)">
       <defs>
        <path id="DejaVuSans-33" d="M 2597 2516 
Q 3050 2419 3304 2112 
Q 3559 1806 3559 1356 
Q 3559 666 3084 287 
Q 2609 -91 1734 -91 
Q 1441 -91 1130 -33 
Q 819 25 488 141 
L 488 750 
Q 750 597 1062 519 
Q 1375 441 1716 441 
Q 2309 441 2620 675 
Q 2931 909 2931 1356 
Q 2931 1769 2642 2001 
Q 2353 2234 1838 2234 
L 1294 2234 
L 1294 2753 
L 1863 2753 
Q 2328 2753 2575 2939 
Q 2822 3125 2822 3475 
Q 2822 3834 2567 4026 
Q 2313 4219 1838 4219 
Q 1578 4219 1281 4162 
Q 984 4106 628 3988 
L 628 4550 
Q 988 4650 1302 4700 
Q 1616 4750 1894 4750 
Q 2613 4750 3031 4423 
Q 3450 4097 3450 3541 
Q 3450 3153 3228 2886 
Q 3006 2619 2597 2516 
z
" transform="scale(0.015625)"/>
       </defs>
       <use xlink:href="#DejaVuSans-33"/>
       <use xlink:href="#DejaVuSans-30" transform="translate(63.623047 0)"/>
       <use xlink:href="#DejaVuSans-30" transform="translate(127.246094 0)"/>
       <use xlink:href="#DejaVuSans-30" transform="translate(190.869141 0)"/>
       <use xlink:href="#DejaVuSans-30" transform="translate(254.492188 0)"/>
      </g>
     </g>
    </g>
    <g id="ytick_2">
     <g id="line2d_13">
      <path d="M 63.47 252.961345 
L 709.2 252.961345 
" clip-path="url(#p0a622bd29e)" style="fill: none; stroke-dasharray: 2.96,1.28; stroke-dashoffset: 0; stroke: #b0b0b0; stroke-opacity: 0.5; stroke-width: 0.8"/>
     </g>
     <g id="line2d_14">
      <g>
       <use xlink:href="#m0f52770c3a" x="63.47" y="252.961345" style="stroke: #000000; stroke-width: 0.8"/>
      </g>
     </g>
     <g id="text_8">
      <!-- 40000 -->
      <g transform="translate(24.6575 256.760564) scale(0.1 -0.1)">
       <use xlink:href="#DejaVuSans-34"/>
       <use xlink:href="#DejaVuSans-30" transform="translate(63.623047 0)"/>
       <use xlink:href="#DejaVuSans-30" transform="translate(127.246094 0)"/>
       <use xlink:href="#DejaVuSans-30" transform="translate(190.869141 0)"/>
       <use xlink:href="#DejaVuSans-30" transform="translate(254.492188 0)"/>
      </g>
     </g>
    </g>
    <g id="ytick_3">
     <g id="line2d_15">
      <path d="M 63.47 203.230784 
L 709.2 203.230784 
" clip-path="url(#p0a622bd29e)" style="fill: none; stroke-dasharray: 2.96,1.28; stroke-dashoffset: 0; stroke: #b0b0b0; stroke-opacity: 0.5; stroke-width: 0.8"/>
     </g>
     <g id="line2d_16">
      <g>
       <use xlink:href="#m0f52770c3a" x="63.47" y="203.230784" style="stroke: #000000; stroke-width: 0.8"/>
      </g>
     </g>
     <g id="text_9">
      <!-- 50000 -->
      <g transform="translate(24.6575 207.030003) scale(0.1 -0.1)">
       <defs>
        <path id="DejaVuSans-35" d="M 691 4666 
L 3169 4666 
L 3169 4134 
L 1269 4134 
L 1269 2991 
Q 1406 3038 1543 3061 
Q 1681 3084 1819 3084 
Q 2600 3084 3056 2656 
Q 3513 2228 3513 1497 
Q 3513 744 3044 326 
Q 2575 -91 1722 -91 
Q 1428 -91 1123 -41 
Q 819 9 494 109 
L 494 744 
Q 775 591 1075 516 
Q 1375 441 1709 441 
Q 2250 441 2565 725 
Q 2881 1009 2881 1497 
Q 2881 1984 2565 2268 
Q 2250 2553 1709 2553 
Q 1456 2553 1204 2497 
Q 953 2441 691 2322 
L 691 4666 
z
" transform="scale(0.015625)"/>
       </defs>
       <use xlink:href="#DejaVuSans-35"/>
       <use xlink:href="#DejaVuSans-30" transform="translate(63.623047 0)"/>
       <use xlink:href="#DejaVuSans-30" transform="translate(127.246094 0)"/>
       <use xlink:href="#DejaVuSans-30" transform="translate(190.869141 0)"/>
       <use xlink:href="#DejaVuSans-30" transform="translate(254.492188 0)"/>
      </g>
     </g>
    </g>
    <g id="ytick_4">
     <g id="line2d_17">
      <path d="M 63.47 153.500224 
L 709.2 153.500224 
" clip-path="url(#p0a622bd29e)" style="fill: none; stroke-dasharray: 2.96,1.28; stroke-dashoffset: 0; stroke: #b0b0b0; stroke-opacity: 0.5; stroke-width: 0.8"/>
     </g>
     <g id="line2d_18">
      <g>
       <use xlink:href="#m0f52770c3a" x="63.47" y="153.500224" style="stroke: #000000; stroke-width: 0.8"/>
      </g>
     </g>
     <g id="text_10">
      <!-- 60000 -->
      <g transform="translate(24.6575 157.299442) scale(0.1 -0.1)">
       <use xlink:href="#DejaVuSans-36"/>
       <use xlink:href="#DejaVuSans-30" transform="translate(63.623047 0)"/>
       <use xlink:href="#DejaVuSans-30" transform="translate(127.246094 0)"/>
       <use xlink:href="#DejaVuSans-30" transform="translate(190.869141 0)"/>
       <use xlink:href="#DejaVuSans-30" transform="translate(254.492188 0)"/>
      </g>
     </g>
    </g>
    <g id="ytick_5">
     <g id="line2d_19">
      <path d="M 63.47 103.769663 
L 709.2 103.769663 
" clip-path="url(#p0a622bd29e)" style="fill: none; stroke-dasharray: 2.96,1.28; stroke-dashoffset: 0; stroke: #b0b0b0; stroke-opacity: 0.5; stroke-width: 0.8"/>
     </g>
     <g id="line2d_20">
      <g>
       <use xlink:href="#m0f52770c3a" x="63.47" y="103.769663" style="stroke: #000000; stroke-width: 0.8"/>
      </g>
     </g>
     <g id="text_11">
      <!-- 70000 -->
      <g transform="translate(24.6575 107.568882) scale(0.1 -0.1)">
       <defs>
        <path id="DejaVuSans-37" d="M 525 4666 
L 3525 4666 
L 3525 4397 
L 1831 0 
L 1172 0 
L 2766 4134 
L 525 4134 
L 525 4666 
z
" transform="scale(0.015625)"/>
       </defs>
       <use xlink:href="#DejaVuSans-37"/>
       <use xlink:href="#DejaVuSans-30" transform="translate(63.623047 0)"/>
       <use xlink:href="#DejaVuSans-30" transform="translate(127.246094 0)"/>
       <use xlink:href="#DejaVuSans-30" transform="translate(190.869141 0)"/>
       <use xlink:href="#DejaVuSans-30" transform="translate(254.492188 0)"/>
      </g>
     </g>
    </g>
    <g id="ytick_6">
     <g id="line2d_21">
      <path d="M 63.47 54.039102 
L 709.2 54.039102 
" clip-path="url(#p0a622bd29e)" style="fill: none; stroke-dasharray: 2.96,1.28; stroke-dashoffset: 0; stroke: #b0b0b0; stroke-opacity: 0.5; stroke-width: 0.8"/>
     </g>
     <g id="line2d_22">
      <g>
       <use xlink:href="#m0f52770c3a" x="63.47" y="54.039102" style="stroke: #000000; stroke-width: 0.8"/>
      </g>
     </g>
     <g id="text_12">
      <!-- 80000 -->
      <g transform="translate(24.6575 57.838321) scale(0.1 -0.1)">
       <use xlink:href="#DejaVuSans-38"/>
       <use xlink:href="#DejaVuSans-30" transform="translate(63.623047 0)"/>
       <use xlink:href="#DejaVuSans-30" transform="translate(127.246094 0)"/>
       <use xlink:href="#DejaVuSans-30" transform="translate(190.869141 0)"/>
       <use xlink:href="#DejaVuSans-30" transform="translate(254.492188 0)"/>
      </g>
     </g>
    </g>
    <g id="text_13">
     <!-- Puissance (MW) -->
     <g transform="translate(18.577813 211.961563) rotate(-90) scale(0.1 -0.1)">
      <defs>
       <path id="DejaVuSans-50" d="M 1259 4147 
L 1259 2394 
L 2053 2394 
Q 2494 2394 2734 2622 
Q 2975 2850 2975 3272 
Q 2975 3691 2734 3919 
Q 2494 4147 2053 4147 
L 1259 4147 
z
M 628 4666 
L 2053 4666 
Q 2838 4666 3239 4311 
Q 3641 3956 3641 3272 
Q 3641 2581 3239 2228 
Q 2838 1875 2053 1875 
L 1259 1875 
L 1259 0 
L 628 0 
L 628 4666 
z
" transform="scale(0.015625)"/>
       <path id="DejaVuSans-69" d="M 603 3500 
L 1178 3500 
L 1178 0 
L 603 0 
L 603 3500 
z
M 603 4863 
L 1178 4863 
L 1178 4134 
L 603 4134 
L 603 4863 
z
" transform="scale(0.015625)"/>
       <path id="DejaVuSans-61" d="M 2194 1759 
Q 1497 1759 1228 1600 
Q 959 1441 959 1056 
Q 959 750 1161 570 
Q 1363 391 1709 391 
Q 2188 391 2477 730 
Q 2766 1069 2766 1631 
L 2766 1759 
L 2194 1759 
z
M 3341 1997 
L 3341 0 
L 2766 0 
L 2766 531 
Q 2569 213 2275 61 
Q 1981 -91 1556 -91 
Q 1019 -91 701 211 
Q 384 513 384 1019 
Q 384 1609 779 1909 
Q 1175 2209 1959 2209 
L 2766 2209 
L 2766 2266 
Q 2766 2663 2505 2880 
Q 2244 3097 1772 3097 
Q 1472 3097 1187 3025 
Q 903 2953 641 2809 
L 641 3341 
Q 956 3463 1253 3523 
Q 1550 3584 1831 3584 
Q 2591 3584 2966 3190 
Q 3341 2797 3341 1997 
z
" transform="scale(0.015625)"/>
       <path id="DejaVuSans-6e" d="M 3513 2113 
L 3513 0 
L 2938 0 
L 2938 2094 
Q 2938 2591 2744 2837 
Q 2550 3084 2163 3084 
Q 1697 3084 1428 2787 
Q 1159 2491 1159 1978 
L 1159 0 
L 581 0 
L 581 3500 
L 1159 3500 
L 1159 2956 
Q 1366 3272 1645 3428 
Q 1925 3584 2291 3584 
Q 2894 3584 3203 3211 
Q 3513 2838 3513 2113 
z
" transform="scale(0.015625)"/>
       <path id="DejaVuSans-63" d="M 3122 3366 
L 3122 2828 
Q 2878 2963 2633 3030 
Q 2388 3097 2138 3097 
Q 1578 3097 1268 2742 
Q 959 2388 959 1747 
Q 959 1106 1268 751 
Q 1578 397 2138 397 
Q 2388 397 2633 464 
Q 2878 531 3122 666 
L 3122 134 
Q 2881 22 2623 -34 
Q 2366 -91 2075 -91 
Q 1284 -91 818 406 
Q 353 903 353 1747 
Q 353 2603 823 3093 
Q 1294 3584 2113 3584 
Q 2378 3584 2631 3529 
Q 2884 3475 3122 3366 
z
" transform="scale(0.015625)"/>
       <path id="DejaVuSans-20" transform="scale(0.015625)"/>
       <path id="DejaVuSans-28" d="M 1984 4856 
Q 1566 4138 1362 3434 
Q 1159 2731 1159 2009 
Q 1159 1288 1364 580 
Q 1569 -128 1984 -844 
L 1484 -844 
Q 1016 -109 783 600 
Q 550 1309 550 2009 
Q 550 2706 781 3412 
Q 1013 4119 1484 4856 
L 1984 4856 
z
" transform="scale(0.015625)"/>
       <path id="DejaVuSans-4d" d="M 628 4666 
L 1569 4666 
L 2759 1491 
L 3956 4666 
L 4897 4666 
L 4897 0 
L 4281 0 
L 4281 4097 
L 3078 897 
L 2444 897 
L 1241 4097 
L 1241 0 
L 628 0 
L 628 4666 
z
" transform="scale(0.015625)"/>
       <path id="DejaVuSans-57" d="M 213 4666 
L 850 4666 
L 1831 722 
L 2809 4666 
L 3519 4666 
L 4500 722 
L 5478 4666 
L 6119 4666 
L 4947 0 
L 4153 0 
L 3169 4050 
L 2175 0 
L 1381 0 
L 213 4666 
z
" transform="scale(0.015625)"/>
       <path id="DejaVuSans-29" d="M 513 4856 
L 1013 4856 
Q 1481 4119 1714 3412 
Q 1947 2706 1947 2009 
Q 1947 1309 1714 600 
Q 1481 -109 1013 -844 
L 513 -844 
Q 928 -128 1133 580 
Q 1338 1288 1338 2009 
Q 1338 2731 1133 3434 
Q 928 4138 513 4856 
z
" transform="scale(0.015625)"/>
      </defs>
      <use xlink:href="#DejaVuSans-50"/>
      <use xlink:href="#DejaVuSans-75" transform="translate(58.552734 0)"/>
      <use xlink:href="#DejaVuSans-69" transform="translate(121.931641 0)"/>
      <use xlink:href="#DejaVuSans-73" transform="translate(149.714844 0)"/>
      <use xlink:href="#DejaVuSans-73" transform="translate(201.814453 0)"/>
      <use xlink:href="#DejaVuSans-61" transform="translate(253.914062 0)"/>
      <use xlink:href="#DejaVuSans-6e" transform="translate(315.193359 0)"/>
      <use xlink:href="#DejaVuSans-63" transform="translate(378.572266 0)"/>
      <use xlink:href="#DejaVuSans-65" transform="translate(433.552734 0)"/>
      <use xlink:href="#DejaVuSans-20" transform="translate(495.076172 0)"/>
      <use xlink:href="#DejaVuSans-28" transform="translate(526.863281 0)"/>
      <use xlink:href="#DejaVuSans-4d" transform="translate(565.876953 0)"/>
      <use xlink:href="#DejaVuSans-57" transform="translate(652.15625 0)"/>
      <use xlink:href="#DejaVuSans-29" transform="translate(751.033203 0)"/>
     </g>
    </g>
   </g>
   <g id="line2d_23">
    <path d="M 92.821364 40.114545 
L 93.021874 41.695977 
L 93.222384 42.004307 
L 93.489731 45.88329 
L 93.757078 47.385153 
L 94.158099 50.935915 
L 94.224936 51.095053 
L 94.625956 54.143537 
L 94.826466 54.62095 
L 95.026977 56.724553 
L 95.093814 57.022936 
L 95.294324 59.285677 
L 95.494834 59.778009 
L 95.695344 61.55339 
L 95.962691 62.294376 
L 96.029528 62.299349 
L 96.230038 63.547586 
L 96.296875 63.577424 
L 96.497385 66.15844 
L 96.697896 67.41165 
L 96.965243 68.500749 
L 97.098916 68.570372 
L 97.366263 69.56001 
L 97.566774 71.340364 
L 97.63361 71.439826 
L 97.767284 72.13108 
L 97.834121 72.235515 
L 98.101468 73.991003 
L 98.502488 75.448109 
L 98.569325 75.453082 
L 98.769835 76.368124 
L 98.970346 77.382628 
L 99.037182 77.656146 
L 99.237693 79.695099 
L 99.304529 79.739856 
L 99.50504 80.281919 
L 99.638713 80.316731 
L 99.90606 81.132312 
L 100.039734 81.390911 
L 100.240244 82.708771 
L 100.373918 82.843043 
L 101.109122 84.250418 
L 101.175959 84.265337 
L 101.576979 85.53844 
L 102.445857 86.264506 
L 102.846878 87.80118 
L 102.980551 88.353189 
L 103.381572 88.880333 
L 103.715756 90.745229 
L 103.916266 90.884475 
L 103.983103 90.944152 
L 104.183613 91.864167 
L 104.384123 92.202335 
L 104.517797 92.281904 
L 104.785144 93.743982 
L 105.520348 94.579455 
L 105.720859 95.131465 
L 105.787695 95.136438 
L 105.988206 95.564121 
L 106.121879 95.753097 
L 106.72341 97.230094 
L 106.92392 97.409124 
L 107.191267 98.209786 
L 107.525451 98.856284 
L 107.659125 98.955745 
L 107.859635 99.418239 
L 108.060145 99.552512 
L 108.260655 99.935437 
L 108.528002 100.701288 
L 109.062697 101.064321 
L 109.263207 101.631249 
L 109.330044 101.651141 
L 109.530554 101.944552 
L 109.664227 101.964444 
L 109.864738 102.282719 
L 110.533105 103.058516 
L 110.867289 103.29225 
L 111.401983 104.227184 
L 111.736167 104.664813 
L 112.003514 105.107415 
L 112.137188 105.624613 
L 112.270861 105.758886 
L 112.337698 105.79867 
L 112.605045 106.256191 
L 112.671882 106.266137 
L 113.006065 107.056853 
L 113.273413 107.196099 
L 113.607596 107.65362 
L 114.810658 108.852126 
L 115.011168 109.384243 
L 115.479026 110.294313 
L 115.612699 110.712049 
L 116.21423 111.224274 
L 116.347904 111.865798 
L 116.481577 112.064721 
L 116.748924 112.482457 
L 117.283618 112.840517 
L 117.617802 113.531772 
L 117.818312 113.705829 
L 118.085659 114.232973 
L 118.419843 114.546276 
L 118.620353 114.625844 
L 118.754027 114.89439 
L 119.221884 115.615483 
L 119.355558 115.729863 
L 119.689742 115.958624 
L 120.023925 116.192357 
L 120.157599 116.296791 
L 120.491783 116.923396 
L 120.825967 117.415729 
L 121.026477 117.654436 
L 121.16015 117.704166 
L 121.360661 118.022442 
L 122.563722 119.300517 
L 122.697396 119.350248 
L 122.897906 119.529278 
L 123.23209 119.97188 
L 123.4326 120.116098 
L 123.566274 120.195667 
L 123.833621 120.424428 
L 124.034131 120.538808 
L 124.234641 120.742703 
L 124.368315 120.857084 
L 124.568825 121.105737 
L 124.836172 121.254928 
L 125.036682 121.5185 
L 125.237193 121.792018 
L 125.50454 121.990941 
L 126.172907 122.383812 
L 126.373418 122.597653 
L 126.573928 122.712034 
L 127.375969 123.741456 
L 127.643316 124.049786 
L 128.244847 124.726121 
L 128.378521 125.044397 
L 128.645868 125.198562 
L 128.846378 125.636191 
L 129.113725 125.790355 
L 129.314235 126.014143 
L 129.514745 126.173281 
L 129.715256 126.327445 
L 129.982603 126.446799 
L 130.183113 126.854589 
L 130.45046 127.003781 
L 130.584134 127.123134 
L 130.65097 127.148 
L 131.118828 128.048123 
L 131.453012 128.276883 
L 131.653522 128.431048 
L 132.054542 128.634943 
L 132.255053 128.799054 
L 132.388726 128.913435 
L 133.190767 129.65442 
L 133.391278 129.972696 
L 133.591788 130.07713 
L 134.99536 131.315421 
L 135.39638 131.489478 
L 135.663728 131.827645 
L 135.730564 131.897268 
L 135.931075 132.324951 
L 136.599442 132.668092 
L 136.933626 133.095775 
L 137.535157 133.498592 
L 137.735667 133.647784 
L 138.003014 133.796976 
L 138.604545 134.353958 
L 139.139239 134.557853 
L 140.409138 135.462949 
L 140.542811 135.661872 
L 141.010668 135.855821 
L 141.679036 136.174096 
L 141.879546 136.273558 
L 142.481077 136.646537 
L 142.681587 136.795728 
L 144.887201 137.705798 
L 145.421895 138.048939 
L 145.756078 138.213049 
L 145.956589 138.501487 
L 146.357609 138.779978 
L 146.95914 139.013711 
L 147.961692 139.361825 
L 148.496386 139.506044 
L 148.830569 139.714912 
L 149.164753 139.888969 
L 149.966794 140.266922 
L 150.167305 140.381302 
L 151.103019 140.933311 
L 151.236693 141.176991 
L 151.50404 141.286398 
L 152.239244 141.684243 
L 152.506591 142.027383 
L 152.773938 142.161656 
L 152.974449 142.300901 
L 153.108122 142.345659 
L 153.241796 142.504797 
L 153.442306 142.614204 
L 154.645368 143.041887 
L 155.046388 143.136375 
L 156.383123 143.842549 
L 156.784144 144.086229 
L 156.984654 144.250339 
L 157.385675 144.797376 
L 157.586185 144.926675 
L 158.254553 145.08084 
L 158.388226 145.190247 
L 158.72241 145.334466 
L 159.390778 145.563226 
L 159.591288 145.657714 
L 160.059145 145.821825 
L 160.326492 146.085397 
L 160.660676 146.229616 
L 161.930575 146.955682 
L 162.131085 147.129739 
L 162.532105 147.313742 
L 162.665779 147.507691 
L 162.799453 147.627045 
L 162.999963 147.726506 
L 163.26731 147.910509 
L 164.871392 148.328245 
L 165.005066 148.566952 
L 165.205576 148.701225 
L 165.406086 148.934958 
L 166.074454 149.238315 
L 166.408638 149.467075 
L 166.809658 149.531725 
L 167.010168 149.790324 
L 168.280067 150.282656 
L 168.480577 150.382118 
L 170.48568 150.983857 
L 170.68619 151.187753 
L 171.087211 151.41154 
L 171.421395 151.585597 
L 171.956089 151.809385 
L 172.022926 151.809385 
L 172.223436 151.978469 
L 172.55762 152.097822 
L 174.629559 152.764211 
L 175.23109 152.953188 
L 175.698947 153.102379 
L 175.966294 153.157083 
L 176.233641 153.390817 
L 176.634662 153.490278 
L 177.169356 153.768769 
L 178.038234 154.196452 
L 179.57548 154.987168 
L 179.909663 155.136359 
L 180.778541 155.573988 
L 183.050991 156.707845 
L 183.452012 156.956498 
L 183.719359 157.160393 
L 183.986706 157.294666 
L 184.254053 157.438884 
L 188.732116 158.876097 
L 189.0663 159.030262 
L 189.46732 159.1894 
L 189.734667 159.353511 
L 190.068851 159.462918 
L 190.336198 159.567352 
L 191.53926 159.835897 
L 193.210179 160.701209 
L 193.410689 160.750939 
L 193.611199 160.875266 
L 194.480077 161.084134 
L 195.081608 161.357652 
L 196.351507 161.790308 
L 196.552017 162.024042 
L 199.425998 163.19271 
L 199.960692 163.292171 
L 200.294875 163.431417 
L 200.762733 163.590555 
L 201.163753 163.764611 
L 201.631611 163.903857 
L 202.233142 164.013264 
L 203.369366 164.276836 
L 204.238244 164.669708 
L 204.906612 164.863657 
L 205.708653 165.176959 
L 206.109674 165.276421 
L 206.377021 165.370909 
L 206.844878 165.515127 
L 207.713756 165.813511 
L 208.114777 166.047244 
L 208.582634 166.181517 
L 208.849981 166.231247 
L 209.317838 166.325735 
L 216.603045 169.11562 
L 216.803555 169.205135 
L 217.204576 169.304596 
L 219.009169 169.801902 
L 219.677536 170.045581 
L 220.145394 170.154989 
L 220.813761 170.48321 
L 221.949986 170.761701 
L 222.351007 170.975543 
L 223.153048 171.254034 
L 223.754579 171.55739 
L 223.888252 171.661825 
L 224.823967 171.830908 
L 226.093865 172.124319 
L 226.561723 172.358052 
L 227.4306 172.636543 
L 227.764784 172.82552 
L 228.032131 172.934927 
L 228.433152 173.089092 
L 229.034683 173.278068 
L 229.435703 173.327798 
L 229.769887 173.581424 
L 230.104071 173.700777 
L 231.57448 174.148353 
L 231.9755 174.287598 
L 233.646419 174.769985 
L 234.114277 174.919176 
L 237.456115 176.296713 
L 238.124482 176.386228 
L 238.79285 176.689584 
L 239.394381 176.798991 
L 241.26581 177.390785 
L 241.533157 177.460408 
L 241.733667 177.619546 
L 242.803056 178.027336 
L 243.070403 178.26107 
L 243.671933 178.450046 
L 243.93928 178.524642 
L 244.407138 178.653941 
L 245.075505 178.887675 
L 245.209179 179.081624 
L 245.944383 179.404873 
L 246.412241 179.683364 
L 246.946935 179.837529 
L 247.214282 179.956882 
L 247.548466 180.081208 
L 248.149996 180.329861 
L 248.350507 180.444242 
L 250.55612 181.478637 
L 250.689793 181.697452 
L 251.625508 182.145027 
L 251.826018 182.249461 
L 253.430101 182.677144 
L 253.630611 182.756713 
L 254.566325 182.955635 
L 254.900509 183.164503 
L 255.167856 183.244072 
L 255.635714 183.418129 
L 256.437755 183.51759 
L 257.106122 183.666782 
L 257.57398 183.731432 
L 257.908164 183.900515 
L 258.108674 184.019869 
L 260.381124 184.755881 
L 260.982655 184.915019 
L 261.183165 185.039345 
L 261.784696 185.278052 
L 261.985206 185.377513 
L 262.586737 185.491893 
L 262.854084 185.641085 
L 263.321941 185.775358 
L 263.722962 185.954388 
L 264.324493 186.098606 
L 264.725513 186.347259 
L 265.327044 186.496451 
L 265.393881 186.521316 
L 265.527554 186.6904 
L 267.131637 187.272247 
L 267.332147 187.530846 
L 268.000514 187.719823 
L 268.334698 187.908799 
L 268.802556 188.157451 
L 269.33725 188.341455 
L 269.671434 188.445889 
L 269.871944 188.550323 
L 270.139291 188.605027 
L 271.141842 189.01779 
L 272.812761 189.485257 
L 273.013272 189.609584 
L 274.08266 189.932832 
L 274.28317 190.027321 
L 275.486232 190.285919 
L 275.753579 190.380408 
L 276.55562 190.529599 
L 277.090314 190.698683 
L 277.825518 190.892632 
L 278.026029 191.011986 
L 278.82807 191.176097 
L 279.162254 191.300423 
L 279.964295 191.603779 
L 280.498989 191.743025 
L 280.766336 191.877297 
L 281.367867 192.016543 
L 282.303581 192.339792 
L 282.704602 192.449199 
L 283.038786 192.578498 
L 290.524503 195.249029 
L 293.0643 195.850769 
L 293.26481 196.154126 
L 294.868892 196.621593 
L 295.403587 196.840407 
L 296.472975 197.02441 
L 298.611751 197.606258 
L 298.879098 197.770369 
L 301.017874 198.297513 
L 301.886752 198.446704 
L 302.087263 198.571031 
L 303.022977 198.735142 
L 307.166856 199.769537 
L 307.902061 199.978406 
L 308.704102 200.087813 
L 309.77349 200.271816 
L 310.709205 200.510523 
L 313.917369 201.097343 
L 314.585737 201.281346 
L 315.788799 201.559838 
L 316.457166 201.699083 
L 317.459718 201.932817 
L 317.793901 202.017359 
L 319.130637 202.405257 
L 319.397984 202.469907 
L 319.932678 202.619099 
L 322.739822 203.340192 
L 323.140842 203.479437 
L 324.544414 203.79274 
L 324.945435 203.862363 
L 325.145945 204.046366 
L 327.017375 204.414372 
L 327.351558 204.498914 
L 328.821967 204.827135 
L 330.559723 205.180222 
L 330.760233 205.269737 
L 336.374521 206.617436 
L 336.708705 206.751708 
L 337.978603 207.040145 
L 338.312787 207.124687 
L 339.916869 207.353448 
L 342.523503 207.825888 
L 342.857687 207.935295 
L 344.328096 208.223733 
L 344.528606 208.293355 
L 345.464321 208.392817 
L 346.934729 208.726011 
L 347.937281 208.830446 
L 348.939832 209.079098 
L 349.407689 209.168613 
L 349.6082 209.253155 
L 350.142894 209.372509 
L 352.615854 209.815111 
L 355.289324 210.287551 
L 355.556672 210.372093 
L 356.158202 210.521285 
L 356.62606 210.580961 
L 356.82657 210.710261 
L 357.762285 210.889291 
L 358.564326 211.013617 
L 360.101571 211.227459 
L 360.569429 211.287135 
L 361.304633 211.391569 
L 365.181165 212.147474 
L 374.070454 213.549876 
L 374.404638 213.699067 
L 374.738822 213.783609 
L 374.939332 213.863178 
L 379.283722 214.589244 
L 379.484232 214.693679 
L 379.952089 214.768274 
L 381.623008 215.002008 
L 382.892907 215.26558 
L 384.095969 215.429691 
L 384.630663 215.534125 
L 389.64342 216.389491 
L 390.645971 216.513817 
L 391.113828 216.618251 
L 393.319442 217.001177 
L 394.522503 217.200099 
L 396.126586 217.453725 
L 396.66128 217.558159 
L 401.273016 218.343902 
L 401.874547 218.453309 
L 403.278119 218.652231 
L 403.745976 218.726827 
L 405.483732 218.965534 
L 406.419447 219.134618 
L 407.823019 219.298729 
L 408.023529 219.403163 
L 408.82557 219.492678 
L 409.159754 219.552354 
L 410.563326 219.761223 
L 412.568429 220.004903 
L 412.902613 220.079498 
L 413.504143 220.183933 
L 413.637817 220.298313 
L 415.709757 220.561885 
L 423.997515 221.894664 
L 424.264862 221.989152 
L 425.601597 222.188074 
L 425.935781 222.282562 
L 427.072006 222.461592 
L 427.473026 222.595865 
L 432.753131 223.481069 
L 433.020478 223.585503 
L 434.691397 223.80929 
L 435.560275 223.953509 
L 436.763336 224.062916 
L 437.498541 224.172323 
L 439.36997 224.555249 
L 439.837827 224.659683 
L 448.326096 226.032246 
L 448.66028 226.091923 
L 451.53426 226.589229 
L 451.734771 226.693663 
L 452.804159 226.882639 
L 454.408241 227.350106 
L 454.608751 227.459514 
L 455.67814 227.673355 
L 456.212834 227.782762 
L 460.022529 228.528721 
L 461.292428 228.732616 
L 465.904164 229.652631 
L 466.773042 229.806796 
L 467.040389 229.891338 
L 468.109777 230.000745 
L 472.119983 230.791461 
L 473.790902 231.020222 
L 475.528658 231.303686 
L 475.929678 231.442931 
L 478.736822 231.965102 
L 479.472027 232.069537 
L 479.939884 232.178944 
L 481.276619 232.382839 
L 482.212334 232.487273 
L 482.813865 232.576788 
L 483.214885 232.651384 
L 484.217437 232.825441 
L 485.621009 233.138744 
L 486.42305 233.282962 
L 486.690397 233.342639 
L 487.626111 233.521669 
L 488.027132 233.606211 
L 489.230194 233.805133 
L 489.898561 233.939406 
L 490.633766 234.048813 
L 491.435807 234.202978 
L 491.903664 234.297466 
L 495.646523 234.958882 
L 496.381727 235.122993 
L 496.849584 235.247319 
L 497.250605 235.371646 
L 498.119483 235.545703 
L 498.58734 235.65511 
L 499.188871 235.759544 
L 502.463872 236.346365 
L 502.93173 236.420961 
L 503.733771 236.525395 
L 505.137343 236.838697 
L 505.538363 236.943131 
L 506.607752 237.072431 
L 507.67714 237.246488 
L 508.144997 237.326057 
L 508.278671 237.430491 
L 512.556223 238.599159 
L 513.090917 238.708566 
L 513.826122 238.922408 
L 514.962347 239.171061 
L 515.162857 239.265549 
L 515.898061 239.374956 
L 516.299082 239.499282 
L 517.970001 240.006534 
L 519.106226 240.240268 
L 519.975104 240.414325 
L 530.802659 242.910799 
L 531.070006 243.005287 
L 531.337353 243.094802 
L 531.6047 243.18929 
L 532.139394 243.358374 
L 532.339905 243.497619 
L 534.144497 243.999898 
L 534.478681 244.074494 
L 535.414396 244.313201 
L 535.94909 244.402716 
L 537.018478 244.571799 
L 537.218988 244.651368 
L 541.09552 245.571384 
L 541.296031 245.660899 
L 542.565929 246.023932 
L 548.380727 247.426334 
L 548.781748 247.520822 
L 552.324096 248.092723 
L 552.591443 248.261807 
L 554.797056 248.967981 
L 555.398587 249.04755 
L 555.732771 249.147011 
L 558.205731 249.962592 
L 558.673588 250.091892 
L 559.074609 250.191353 
L 559.67614 250.345518 
L 563.619509 251.409752 
L 564.087366 251.514186 
L 564.287876 251.613647 
L 569.501144 252.866857 
L 570.035838 253.085671 
L 570.971553 253.254755 
L 571.907267 253.488489 
L 572.575635 253.677465 
L 572.776145 253.752061 
L 573.244002 253.861468 
L 575.315942 254.403531 
L 575.516452 254.463208 
L 576.920024 254.72678 
L 577.120535 254.821268 
L 577.588392 254.930675 
L 578.123086 255.005271 
L 578.323596 255.104732 
L 579.326148 255.383223 
L 579.727168 255.487658 
L 580.061352 255.567226 
L 580.796556 255.711445 
L 581.063903 255.855664 
L 581.732271 255.984963 
L 582.066455 256.059559 
L 582.734822 256.208751 
L 583.40319 256.482269 
L 584.539415 256.755787 
L 585.274619 256.979574 
L 585.87615 257.064116 
L 586.076661 257.223254 
L 586.544518 257.317742 
L 587.079212 257.506718 
L 590.487887 258.411815 
L 591.022581 258.511276 
L 591.624112 258.740036 
L 592.158806 258.884255 
L 592.6935 259.078204 
L 592.89401 259.20253 
L 594.431256 259.520806 
L 594.899113 259.674971 
L 595.767991 259.764486 
L 595.968501 259.878866 
L 598.641972 260.58504 
L 602.518504 261.624409 
L 607.13024 262.753292 
L 607.731771 262.942269 
L 608.065955 263.026811 
L 608.867996 263.27049 
L 609.135343 263.404763 
L 609.40269 263.529089 
L 609.870547 263.613631 
L 610.271568 263.742931 
L 610.538915 263.852338 
L 612.343508 264.543593 
L 613.011875 264.653 
L 613.212386 264.727596 
L 614.549121 265.12544 
L 615.083815 265.244794 
L 615.417999 265.36912 
L 615.685346 265.637665 
L 615.952693 265.766964 
L 616.42055 265.876372 
L 616.955244 266.139944 
L 617.289428 266.259297 
L 617.824122 266.458219 
L 618.091469 266.542761 
L 618.960347 266.811306 
L 621.433307 267.626887 
L 621.700654 267.686564 
L 621.968001 267.865594 
L 622.903716 268.099328 
L 623.304736 268.203762 
L 623.63892 268.308196 
L 624.641472 268.611553 
L 624.841982 268.686148 
L 626.913922 269.337619 
L 627.114432 269.55146 
L 627.849636 269.770275 
L 628.18382 269.864763 
L 628.584841 269.959251 
L 629.320045 270.287472 
L 630.65678 270.769859 
L 631.124638 270.894185 
L 631.793005 271.127919 
L 634.399639 272.003177 
L 634.800659 272.117557 
L 635.335353 272.226964 
L 636.471578 272.694432 
L 636.605252 272.764054 
L 636.805762 272.848596 
L 637.139946 272.982869 
L 637.741477 273.181791 
L 638.075661 273.410552 
L 638.543518 273.534878 
L 639.278722 273.793477 
L 639.679743 273.878019 
L 639.880253 273.982453 
L 640.481784 274.136618 
L 641.150152 274.435001 
L 641.551172 274.594139 
L 642.21954 274.80798 
L 642.486887 274.932307 
L 643.355765 275.141175 
L 644.558827 275.514154 
L 644.759337 275.638481 
L 645.093521 275.777726 
L 646.162909 276.225301 
L 646.430256 276.309843 
L 646.697603 276.424224 
L 646.96495 276.528658 
L 648.903216 277.314401 
L 649.103726 277.433754 
L 649.304237 277.548134 
L 649.772094 277.841545 
L 652.178217 279.020159 
L 652.512401 279.189243 
L 653.047095 279.403084 
L 653.381279 279.437896 
L 653.581789 279.557249 
L 654.517504 279.790983 
L 654.851688 279.940174 
L 656.188423 280.333046 
L 656.789954 280.531968 
L 656.923627 280.566779 
L 657.124138 280.805486 
L 657.859342 281.074031 
L 658.059852 281.287872 
L 658.193526 281.596202 
L 658.394036 281.710582 
L 658.861893 282.018912 
L 660.465976 282.725086 
L 662.404242 283.709751 
L 662.604752 283.948457 
L 663.206283 284.102622 
L 663.47363 284.212029 
L 663.67414 284.649658 
L 664.342508 284.908257 
L 664.676692 285.09226 
L 665.812917 285.509997 
L 666.013427 285.8233 
L 666.213937 285.843192 
L 666.414447 286.131629 
L 666.614958 286.241036 
L 666.815468 286.365363 
L 667.149652 286.499635 
L 667.751183 287.220728 
L 667.951693 287.345055 
L 668.887408 288.15069 
L 669.087918 288.334693 
L 669.355265 288.459019 
L 669.622612 288.886702 
L 669.823122 288.966271 
L 670.023632 289.170166 
L 670.224143 289.334277 
L 670.558327 289.597849 
L 670.758837 289.916125 
L 670.959347 290.065316 
L 671.226694 290.254292 
L 673.16496 292.049566 
L 673.632818 292.835309 
L 673.833328 292.944716 
L 675.03639 293.531536 
L 675.103226 293.566348 
L 675.303737 293.964192 
L 675.43741 294.113384 
L 675.571084 294.297387 
L 675.704757 294.396848 
L 675.972104 295.063238 
L 676.239451 295.272106 
L 676.439962 295.451136 
L 676.573635 295.540651 
L 677.041492 296.584993 
L 677.50935 297.569658 
L 677.776697 298.574215 
L 678.177717 299.340066 
L 678.378228 299.663315 
L 678.645575 300.478896 
L 678.912922 300.767333 
L 679.046595 300.792198 
L 679.180269 301.170151 
L 679.380779 301.359127 
L 679.714963 302.010597 
L 679.848636 304.805455 
L 679.848636 304.805455 
" clip-path="url(#p0a622bd29e)" style="fill: none; stroke: #1f77b4; stroke-linecap: square"/>
   </g>
   <g id="line2d_24">
    <path d="M 63.47 208.617259 
L 709.2 208.617259 
" clip-path="url(#p0a622bd29e)" style="fill: none; stroke-dasharray: 5.55,2.4; stroke-dashoffset: 0; stroke: #ffa500; stroke-width: 1.5"/>
   </g>
   <g id="patch_3">
    <path d="M 63.47 318.04 
L 63.47 26.88 
" style="fill: none; stroke: #000000; stroke-width: 0.8; stroke-linejoin: miter; stroke-linecap: square"/>
   </g>
   <g id="patch_4">
    <path d="M 709.2 318.04 
L 709.2 26.88 
" style="fill: none; stroke: #000000; stroke-width: 0.8; stroke-linejoin: miter; stroke-linecap: square"/>
   </g>
   <g id="patch_5">
    <path d="M 63.47 318.04 
L 709.2 318.04 
" style="fill: none; stroke: #000000; stroke-width: 0.8; stroke-linejoin: miter; stroke-linecap: square"/>
   </g>
   <g id="patch_6">
    <path d="M 63.47 26.88 
L 709.2 26.88 
" style="fill: none; stroke: #000000; stroke-width: 0.8; stroke-linejoin: miter; stroke-linecap: square"/>
   </g>
   <g id="text_14">
    <!-- Énergie totale = 429685771 MW·h -->
    <g transform="translate(445.077829 122.468354) scale(0.1 -0.1)">
     <defs>
      <path id="DejaVuSans-c9" d="M 628 4666 
L 3578 4666 
L 3578 4134 
L 1259 4134 
L 1259 2753 
L 3481 2753 
L 3481 2222 
L 1259 2222 
L 1259 531 
L 3634 531 
L 3634 0 
L 628 0 
L 628 4666 
z
M 2268 5921 
L 2846 5921 
L 2134 5096 
L 1655 5096 
L 2268 5921 
z
" transform="scale(0.015625)"/>
      <path id="DejaVuSans-67" d="M 2906 1791 
Q 2906 2416 2648 2759 
Q 2391 3103 1925 3103 
Q 1463 3103 1205 2759 
Q 947 2416 947 1791 
Q 947 1169 1205 825 
Q 1463 481 1925 481 
Q 2391 481 2648 825 
Q 2906 1169 2906 1791 
z
M 3481 434 
Q 3481 -459 3084 -895 
Q 2688 -1331 1869 -1331 
Q 1566 -1331 1297 -1286 
Q 1028 -1241 775 -1147 
L 775 -588 
Q 1028 -725 1275 -790 
Q 1522 -856 1778 -856 
Q 2344 -856 2625 -561 
Q 2906 -266 2906 331 
L 2906 616 
Q 2728 306 2450 153 
Q 2172 0 1784 0 
Q 1141 0 747 490 
Q 353 981 353 1791 
Q 353 2603 747 3093 
Q 1141 3584 1784 3584 
Q 2172 3584 2450 3431 
Q 2728 3278 2906 2969 
L 2906 3500 
L 3481 3500 
L 3481 434 
z
" transform="scale(0.015625)"/>
      <path id="DejaVuSans-74" d="M 1172 4494 
L 1172 3500 
L 2356 3500 
L 2356 3053 
L 1172 3053 
L 1172 1153 
Q 1172 725 1289 603 
Q 1406 481 1766 481 
L 2356 481 
L 2356 0 
L 1766 0 
Q 1100 0 847 248 
Q 594 497 594 1153 
L 594 3053 
L 172 3053 
L 172 3500 
L 594 3500 
L 594 4494 
L 1172 4494 
z
" transform="scale(0.015625)"/>
      <path id="DejaVuSans-6f" d="M 1959 3097 
Q 1497 3097 1228 2736 
Q 959 2375 959 1747 
Q 959 1119 1226 758 
Q 1494 397 1959 397 
Q 2419 397 2687 759 
Q 2956 1122 2956 1747 
Q 2956 2369 2687 2733 
Q 2419 3097 1959 3097 
z
M 1959 3584 
Q 2709 3584 3137 3096 
Q 3566 2609 3566 1747 
Q 3566 888 3137 398 
Q 2709 -91 1959 -91 
Q 1206 -91 779 398 
Q 353 888 353 1747 
Q 353 2609 779 3096 
Q 1206 3584 1959 3584 
z
" transform="scale(0.015625)"/>
      <path id="DejaVuSans-6c" d="M 603 4863 
L 1178 4863 
L 1178 0 
L 603 0 
L 603 4863 
z
" transform="scale(0.015625)"/>
      <path id="DejaVuSans-3d" d="M 678 2906 
L 4684 2906 
L 4684 2381 
L 678 2381 
L 678 2906 
z
M 678 1631 
L 4684 1631 
L 4684 1100 
L 678 1100 
L 678 1631 
z
" transform="scale(0.015625)"/>
      <path id="DejaVuSans-39" d="M 703 97 
L 703 672 
Q 941 559 1184 500 
Q 1428 441 1663 441 
Q 2288 441 2617 861 
Q 2947 1281 2994 2138 
Q 2813 1869 2534 1725 
Q 2256 1581 1919 1581 
Q 1219 1581 811 2004 
Q 403 2428 403 3163 
Q 403 3881 828 4315 
Q 1253 4750 1959 4750 
Q 2769 4750 3195 4129 
Q 3622 3509 3622 2328 
Q 3622 1225 3098 567 
Q 2575 -91 1691 -91 
Q 1453 -91 1209 -44 
Q 966 3 703 97 
z
M 1959 2075 
Q 2384 2075 2632 2365 
Q 2881 2656 2881 3163 
Q 2881 3666 2632 3958 
Q 2384 4250 1959 4250 
Q 1534 4250 1286 3958 
Q 1038 3666 1038 3163 
Q 1038 2656 1286 2365 
Q 1534 2075 1959 2075 
z
" transform="scale(0.015625)"/>
      <path id="DejaVuSans-31" d="M 794 531 
L 1825 531 
L 1825 4091 
L 703 3866 
L 703 4441 
L 1819 4666 
L 2450 4666 
L 2450 531 
L 3481 531 
L 3481 0 
L 794 0 
L 794 531 
z
" transform="scale(0.015625)"/>
      <path id="DejaVuSans-b7" d="M 684 2619 
L 1344 2619 
L 1344 1825 
L 684 1825 
L 684 2619 
z
" transform="scale(0.015625)"/>
      <path id="DejaVuSans-68" d="M 3513 2113 
L 3513 0 
L 2938 0 
L 2938 2094 
Q 2938 2591 2744 2837 
Q 2550 3084 2163 3084 
Q 1697 3084 1428 2787 
Q 1159 2491 1159 1978 
L 1159 0 
L 581 0 
L 581 4863 
L 1159 4863 
L 1159 2956 
Q 1366 3272 1645 3428 
Q 1925 3584 2291 3584 
Q 2894 3584 3203 3211 
Q 3513 2838 3513 2113 
z
" transform="scale(0.015625)"/>
     </defs>
     <use xlink:href="#DejaVuSans-c9"/>
     <use xlink:href="#DejaVuSans-6e" transform="translate(63.183594 0)"/>
     <use xlink:href="#DejaVuSans-65" transform="translate(126.5625 0)"/>
     <use xlink:href="#DejaVuSans-72" transform="translate(188.085938 0)"/>
     <use xlink:href="#DejaVuSans-67" transform="translate(227.449219 0)"/>
     <use xlink:href="#DejaVuSans-69" transform="translate(290.925781 0)"/>
     <use xlink:href="#DejaVuSans-65" transform="translate(318.708984 0)"/>
     <use xlink:href="#DejaVuSans-20" transform="translate(380.232422 0)"/>
     <use xlink:href="#DejaVuSans-74" transform="translate(412.019531 0)"/>
     <use xlink:href="#DejaVuSans-6f" transform="translate(451.228516 0)"/>
     <use xlink:href="#DejaVuSans-74" transform="translate(512.410156 0)"/>
     <use xlink:href="#DejaVuSans-61" transform="translate(551.619141 0)"/>
     <use xlink:href="#DejaVuSans-6c" transform="translate(612.898438 0)"/>
     <use xlink:href="#DejaVuSans-65" transform="translate(640.681641 0)"/>
     <use xlink:href="#DejaVuSans-20" transform="translate(702.205078 0)"/>
     <use xlink:href="#DejaVuSans-3d" transform="translate(733.992188 0)"/>
     <use xlink:href="#DejaVuSans-20" transform="translate(817.78125 0)"/>
     <use xlink:href="#DejaVuSans-34" transform="translate(849.568359 0)"/>
     <use xlink:href="#DejaVuSans-32" transform="translate(913.191406 0)"/>
     <use xlink:href="#DejaVuSans-39" transform="translate(976.814453 0)"/>
     <use xlink:href="#DejaVuSans-36" transform="translate(1040.4375 0)"/>
     <use xlink:href="#DejaVuSans-38" transform="translate(1104.060547 0)"/>
     <use xlink:href="#DejaVuSans-35" transform="translate(1167.683594 0)"/>
     <use xlink:href="#DejaVuSans-37" transform="translate(1231.306641 0)"/>
     <use xlink:href="#DejaVuSans-37" transform="translate(1294.929688 0)"/>
     <use xlink:href="#DejaVuSans-31" transform="translate(1358.552734 0)"/>
     <use xlink:href="#DejaVuSans-20" transform="translate(1422.175781 0)"/>
     <use xlink:href="#DejaVuSans-4d" transform="translate(1453.962891 0)"/>
     <use xlink:href="#DejaVuSans-57" transform="translate(1540.242188 0)"/>
     <use xlink:href="#DejaVuSans-b7" transform="translate(1639.119141 0)"/>
     <use xlink:href="#DejaVuSans-68" transform="translate(1670.90625 0)"/>
    </g>
   </g>
   <g id="text_15">
    <!-- Monotone de consommation (2024) -->
    <g transform="translate(278.89375 20.88) scale(0.12 -0.12)">
     <defs>
      <path id="DejaVuSans-64" d="M 2906 2969 
L 2906 4863 
L 3481 4863 
L 3481 0 
L 2906 0 
L 2906 525 
Q 2725 213 2448 61 
Q 2172 -91 1784 -91 
Q 1150 -91 751 415 
Q 353 922 353 1747 
Q 353 2572 751 3078 
Q 1150 3584 1784 3584 
Q 2172 3584 2448 3432 
Q 2725 3281 2906 2969 
z
M 947 1747 
Q 947 1113 1208 752 
Q 1469 391 1925 391 
Q 2381 391 2643 752 
Q 2906 1113 2906 1747 
Q 2906 2381 2643 2742 
Q 2381 3103 1925 3103 
Q 1469 3103 1208 2742 
Q 947 2381 947 1747 
z
" transform="scale(0.015625)"/>
      <path id="DejaVuSans-6d" d="M 3328 2828 
Q 3544 3216 3844 3400 
Q 4144 3584 4550 3584 
Q 5097 3584 5394 3201 
Q 5691 2819 5691 2113 
L 5691 0 
L 5113 0 
L 5113 2094 
Q 5113 2597 4934 2840 
Q 4756 3084 4391 3084 
Q 3944 3084 3684 2787 
Q 3425 2491 3425 1978 
L 3425 0 
L 2847 0 
L 2847 2094 
Q 2847 2600 2669 2842 
Q 2491 3084 2119 3084 
Q 1678 3084 1418 2786 
Q 1159 2488 1159 1978 
L 1159 0 
L 581 0 
L 581 3500 
L 1159 3500 
L 1159 2956 
Q 1356 3278 1631 3431 
Q 1906 3584 2284 3584 
Q 2666 3584 2933 3390 
Q 3200 3197 3328 2828 
z
" transform="scale(0.015625)"/>
     </defs>
     <use xlink:href="#DejaVuSans-4d"/>
     <use xlink:href="#DejaVuSans-6f" transform="translate(86.279297 0)"/>
     <use xlink:href="#DejaVuSans-6e" transform="translate(147.460938 0)"/>
     <use xlink:href="#DejaVuSans-6f" transform="translate(210.839844 0)"/>
     <use xlink:href="#DejaVuSans-74" transform="translate(272.021484 0)"/>
     <use xlink:href="#DejaVuSans-6f" transform="translate(311.230469 0)"/>
     <use xlink:href="#DejaVuSans-6e" transform="translate(372.412109 0)"/>
     <use xlink:href="#DejaVuSans-65" transform="translate(435.791016 0)"/>
     <use xlink:href="#DejaVuSans-20" transform="translate(497.314453 0)"/>
     <use xlink:href="#DejaVuSans-64" transform="translate(529.101562 0)"/>
     <use xlink:href="#DejaVuSans-65" transform="translate(592.578125 0)"/>
     <use xlink:href="#DejaVuSans-20" transform="translate(654.101562 0)"/>
     <use xlink:href="#DejaVuSans-63" transform="translate(685.888672 0)"/>
     <use xlink:href="#DejaVuSans-6f" transform="translate(740.869141 0)"/>
     <use xlink:href="#DejaVuSans-6e" transform="translate(802.050781 0)"/>
     <use xlink:href="#DejaVuSans-73" transform="translate(865.429688 0)"/>
     <use xlink:href="#DejaVuSans-6f" transform="translate(917.529297 0)"/>
     <use xlink:href="#DejaVuSans-6d" transform="translate(978.710938 0)"/>
     <use xlink:href="#DejaVuSans-6d" transform="translate(1076.123047 0)"/>
     <use xlink:href="#DejaVuSans-61" transform="translate(1173.535156 0)"/>
     <use xlink:href="#DejaVuSans-74" transform="translate(1234.814453 0)"/>
     <use xlink:href="#DejaVuSans-69" transform="translate(1274.023438 0)"/>
     <use xlink:href="#DejaVuSans-6f" transform="translate(1301.806641 0)"/>
     <use xlink:href="#DejaVuSans-6e" transform="translate(1362.988281 0)"/>
     <use xlink:href="#DejaVuSans-20" transform="translate(1426.367188 0)"/>
     <use xlink:href="#DejaVuSans-28" transform="translate(1458.154297 0)"/>
     <use xlink:href="#DejaVuSans-32" transform="translate(1497.167969 0)"/>
     <use xlink:href="#DejaVuSans-30" transform="translate(1560.791016 0)"/>
     <use xlink:href="#DejaVuSans-32" transform="translate(1624.414062 0)"/>
     <use xlink:href="#DejaVuSans-34" transform="translate(1688.037109 0)"/>
     <use xlink:href="#DejaVuSans-29" transform="translate(1751.660156 0)"/>
    </g>
   </g>
   <g id="legend_1">
    <g id="patch_7">
     <path d="M 556.310938 93.5925 
L 702.2 93.5925 
Q 704.2 93.5925 704.2 91.5925 
L 704.2 33.88 
Q 704.2 31.88 702.2 31.88 
L 556.310938 31.88 
Q 554.310938 31.88 554.310938 33.88 
L 554.310938 91.5925 
Q 554.310938 93.5925 556.310938 93.5925 
z
" style="fill: #ffffff; opacity: 0.8; stroke: #cccccc; stroke-linejoin: miter"/>
    </g>
    <g id="line2d_25">
     <path d="M 558.310938 39.978437 
L 568.310938 39.978437 
L 578.310938 39.978437 
" style="fill: none; stroke: #1f77b4; stroke-linecap: square"/>
    </g>
    <g id="text_16">
     <!-- Consommation (MW) -->
     <g transform="translate(586.310938 43.478437) scale(0.1 -0.1)">
      <defs>
       <path id="DejaVuSans-43" d="M 4122 4306 
L 4122 3641 
Q 3803 3938 3442 4084 
Q 3081 4231 2675 4231 
Q 1875 4231 1450 3742 
Q 1025 3253 1025 2328 
Q 1025 1406 1450 917 
Q 1875 428 2675 428 
Q 3081 428 3442 575 
Q 3803 722 4122 1019 
L 4122 359 
Q 3791 134 3420 21 
Q 3050 -91 2638 -91 
Q 1578 -91 968 557 
Q 359 1206 359 2328 
Q 359 3453 968 4101 
Q 1578 4750 2638 4750 
Q 3056 4750 3426 4639 
Q 3797 4528 4122 4306 
z
" transform="scale(0.015625)"/>
      </defs>
      <use xlink:href="#DejaVuSans-43"/>
      <use xlink:href="#DejaVuSans-6f" transform="translate(69.824219 0)"/>
      <use xlink:href="#DejaVuSans-6e" transform="translate(131.005859 0)"/>
      <use xlink:href="#DejaVuSans-73" transform="translate(194.384766 0)"/>
      <use xlink:href="#DejaVuSans-6f" transform="translate(246.484375 0)"/>
      <use xlink:href="#DejaVuSans-6d" transform="translate(307.666016 0)"/>
      <use xlink:href="#DejaVuSans-6d" transform="translate(405.078125 0)"/>
      <use xlink:href="#DejaVuSans-61" transform="translate(502.490234 0)"/>
      <use xlink:href="#DejaVuSans-74" transform="translate(563.769531 0)"/>
      <use xlink:href="#DejaVuSans-69" transform="translate(602.978516 0)"/>
      <use xlink:href="#DejaVuSans-6f" transform="translate(630.761719 0)"/>
      <use xlink:href="#DejaVuSans-6e" transform="translate(691.943359 0)"/>
      <use xlink:href="#DejaVuSans-20" transform="translate(755.322266 0)"/>
      <use xlink:href="#DejaVuSans-28" transform="translate(787.109375 0)"/>
      <use xlink:href="#DejaVuSans-4d" transform="translate(826.123047 0)"/>
      <use xlink:href="#DejaVuSans-57" transform="translate(912.402344 0)"/>
      <use xlink:href="#DejaVuSans-29" transform="translate(1011.279297 0)"/>
     </g>
    </g>
    <g id="PathCollection_3">
     <g>
      <use xlink:href="#m826e184306" x="568.310938" y="55.531563" style="fill: #ff0000; stroke: #ff0000"/>
     </g>
    </g>
    <g id="text_17">
     <!-- Max = 82800 MW -->
     <g transform="translate(586.310938 58.156563) scale(0.1 -0.1)">
      <defs>
       <path id="DejaVuSans-78" d="M 3513 3500 
L 2247 1797 
L 3578 0 
L 2900 0 
L 1881 1375 
L 863 0 
L 184 0 
L 1544 1831 
L 300 3500 
L 978 3500 
L 1906 2253 
L 2834 3500 
L 3513 3500 
z
" transform="scale(0.015625)"/>
      </defs>
      <use xlink:href="#DejaVuSans-4d"/>
      <use xlink:href="#DejaVuSans-61" transform="translate(86.279297 0)"/>
      <use xlink:href="#DejaVuSans-78" transform="translate(147.558594 0)"/>
      <use xlink:href="#DejaVuSans-20" transform="translate(206.738281 0)"/>
      <use xlink:href="#DejaVuSans-3d" transform="translate(238.525391 0)"/>
      <use xlink:href="#DejaVuSans-20" transform="translate(322.314453 0)"/>
      <use xlink:href="#DejaVuSans-38" transform="translate(354.101562 0)"/>
      <use xlink:href="#DejaVuSans-32" transform="translate(417.724609 0)"/>
      <use xlink:href="#DejaVuSans-38" transform="translate(481.347656 0)"/>
      <use xlink:href="#DejaVuSans-30" transform="translate(544.970703 0)"/>
      <use xlink:href="#DejaVuSans-30" transform="translate(608.59375 0)"/>
      <use xlink:href="#DejaVuSans-20" transform="translate(672.216797 0)"/>
      <use xlink:href="#DejaVuSans-4d" transform="translate(704.003906 0)"/>
      <use xlink:href="#DejaVuSans-57" transform="translate(790.283203 0)"/>
     </g>
    </g>
    <g id="PathCollection_4">
     <g>
      <use xlink:href="#mfa80d753f8" x="568.310938" y="70.209687" style="fill: #008000; stroke: #008000"/>
     </g>
    </g>
    <g id="text_18">
     <!-- Min = 29575 MW -->
     <g transform="translate(586.310938 72.834687) scale(0.1 -0.1)">
      <use xlink:href="#DejaVuSans-4d"/>
      <use xlink:href="#DejaVuSans-69" transform="translate(86.279297 0)"/>
      <use xlink:href="#DejaVuSans-6e" transform="translate(114.0625 0)"/>
      <use xlink:href="#DejaVuSans-20" transform="translate(177.441406 0)"/>
      <use xlink:href="#DejaVuSans-3d" transform="translate(209.228516 0)"/>
      <use xlink:href="#DejaVuSans-20" transform="translate(293.017578 0)"/>
      <use xlink:href="#DejaVuSans-32" transform="translate(324.804688 0)"/>
      <use xlink:href="#DejaVuSans-39" transform="translate(388.427734 0)"/>
      <use xlink:href="#DejaVuSans-35" transform="translate(452.050781 0)"/>
      <use xlink:href="#DejaVuSans-37" transform="translate(515.673828 0)"/>
      <use xlink:href="#DejaVuSans-35" transform="translate(579.296875 0)"/>
      <use xlink:href="#DejaVuSans-20" transform="translate(642.919922 0)"/>
      <use xlink:href="#DejaVuSans-4d" transform="translate(674.707031 0)"/>
      <use xlink:href="#DejaVuSans-57" transform="translate(760.986328 0)"/>
     </g>
    </g>
    <g id="line2d_26">
     <path d="M 558.310938 84.012812 
L 568.310938 84.012812 
L 578.310938 84.012812 
" style="fill: none; stroke-dasharray: 5.55,2.4; stroke-dashoffset: 0; stroke: #ffa500; stroke-width: 1.5"/>
    </g>
    <g id="text_19">
     <!-- Moyenne = 48917 MW -->
     <g transform="translate(586.310938 87.512812) scale(0.1 -0.1)">
      <defs>
       <path id="DejaVuSans-79" d="M 2059 -325 
Q 1816 -950 1584 -1140 
Q 1353 -1331 966 -1331 
L 506 -1331 
L 506 -850 
L 844 -850 
Q 1081 -850 1212 -737 
Q 1344 -625 1503 -206 
L 1606 56 
L 191 3500 
L 800 3500 
L 1894 763 
L 2988 3500 
L 3597 3500 
L 2059 -325 
z
" transform="scale(0.015625)"/>
      </defs>
      <use xlink:href="#DejaVuSans-4d"/>
      <use xlink:href="#DejaVuSans-6f" transform="translate(86.279297 0)"/>
      <use xlink:href="#DejaVuSans-79" transform="translate(147.460938 0)"/>
      <use xlink:href="#DejaVuSans-65" transform="translate(206.640625 0)"/>
      <use xlink:href="#DejaVuSans-6e" transform="translate(268.164062 0)"/>
      <use xlink:href="#DejaVuSans-6e" transform="translate(331.542969 0)"/>
      <use xlink:href="#DejaVuSans-65" transform="translate(394.921875 0)"/>
      <use xlink:href="#DejaVuSans-20" transform="translate(456.445312 0)"/>
      <use xlink:href="#DejaVuSans-3d" transform="translate(488.232422 0)"/>
      <use xlink:href="#DejaVuSans-20" transform="translate(572.021484 0)"/>
      <use xlink:href="#DejaVuSans-34" transform="translate(603.808594 0)"/>
      <use xlink:href="#DejaVuSans-38" transform="translate(667.431641 0)"/>
      <use xlink:href="#DejaVuSans-39" transform="translate(731.054688 0)"/>
      <use xlink:href="#DejaVuSans-31" transform="translate(794.677734 0)"/>
      <use xlink:href="#DejaVuSans-37" transform="translate(858.300781 0)"/>
      <use xlink:href="#DejaVuSans-20" transform="translate(921.923828 0)"/>
      <use xlink:href="#DejaVuSans-4d" transform="translate(953.710938 0)"/>
      <use xlink:href="#DejaVuSans-57" transform="translate(1039.990234 0)"/>
     </g>
    </g>
   </g>
  </g>
 </g>
 <defs>
  <clipPath id="p0a622bd29e">
   <rect x="63.47" y="26.88" width="645.73" height="291.16"/>
  </clipPath>
 </defs>
</svg>
